<svg width="702" height="574" viewBox="0 0 702 574" fill="none" xmlns="http://www.w3.org/2000/svg">
<path d="M340.412 568.431L13.6416 375.251C3.23354 369.337 -5.67642 359.816 4.4557 353.567L332.409 164.585C337.337 161.53 344.808 159.539 349.795 162.437L692.789 361.531C703.197 367.563 705.05 384.456 694.642 390.488L383.484 568.116C376.954 571.916 369.545 573.944 361.99 573.999C354.435 574.054 346.997 572.135 340.412 568.431Z" fill="url(#paint0_linear_302_1427)"/>
<path opacity="0.46" d="M33.5312 382.663L99.6463 341.05L251.608 392.617L166.057 455.697C166.057 455.697 50.3656 392.262 33.5312 382.663Z" fill="url(#paint1_linear_302_1427)"/>
<path opacity="0.46" d="M240.905 510.595L307.02 468.983L383.011 509.038L307.907 552.208C307.907 552.208 257.739 520.215 240.905 510.595Z" fill="url(#paint2_linear_302_1427)"/>
<path opacity="0.46" d="M284.134 363.995L419.479 277.064L523.954 379.39L421.194 438.527C421.194 438.527 316.817 382.643 284.134 363.995Z" fill="url(#paint3_linear_302_1427)"/>
<path d="M74.9468 208.642L235.543 229.36C239.775 229.909 243.678 231.934 246.563 235.079C249.448 238.223 251.13 242.286 251.313 246.549L257.226 380.317C257.32 382.456 256.954 384.59 256.154 386.576C255.354 388.562 254.139 390.354 252.589 391.831C251.039 393.308 249.191 394.436 247.169 395.139C245.146 395.843 242.997 396.105 240.865 395.909L164.579 389.345L74.9468 208.642Z" fill="#F4AA06"/>
<path d="M252.555 273.437L88.9231 253.35V307.5L254.94 328.986L252.555 273.437Z" fill="#F29808"/>
<path d="M136.844 278.109C126.357 277.162 118.216 275.585 107.729 274.718L164.579 389.345L240.866 395.909C242.991 396.094 245.132 395.822 247.144 395.113C249.157 394.404 250.995 393.274 252.536 391.799C254.077 390.323 255.286 388.535 256.081 386.555C256.876 384.575 257.24 382.449 257.148 380.317L253.284 291.178C214.057 287.354 176.15 281.578 136.844 278.109Z" fill="#EA8C06"/>
<path d="M84.7634 213.492L225.687 259.047L227.54 401.823L120.541 357.234" fill="#85B23B"/>
<path d="M91.4858 223.032C95.0734 222.224 216.127 265.631 216.127 265.631L217.723 387.039L195.508 377.537L207.571 393.504L227.54 401.823L225.687 259.047L80.782 212.171" fill="#B8E06C"/>
<path d="M74.316 362.714L195.212 435.649C196.447 436.398 197.86 436.804 199.305 436.826C200.75 436.849 202.174 436.486 203.433 435.776C204.691 435.065 205.737 434.033 206.465 432.784C207.192 431.536 207.574 430.116 207.571 428.671V296.678C207.573 293.752 206.816 290.876 205.376 288.33C203.935 285.784 201.859 283.655 199.351 282.15L78.5147 209.727C77.2779 208.982 75.8653 208.58 74.4218 208.561C72.9783 208.542 71.5558 208.908 70.3 209.62C69.0442 210.332 68.0004 211.365 67.2755 212.614C66.5506 213.862 66.1708 215.281 66.1748 216.724V348.265C66.173 351.17 66.9214 354.027 68.3477 356.558C69.774 359.09 71.8298 361.21 74.316 362.714Z" fill="#F99A10"/>
<path d="M60.6946 216.646L69.3483 210.259L71.0435 216.724L60.6946 216.646Z" fill="#F99A10"/>
<path d="M195.487 441.622L204.003 435.334L198.227 432.456L195.487 441.622Z" fill="#F99A10"/>
<path d="M65.7412 369.041L186.637 441.977C187.872 442.726 189.285 443.132 190.73 443.154C192.175 443.176 193.599 442.814 194.858 442.103C196.116 441.393 197.162 440.36 197.89 439.112C198.617 437.863 198.999 436.444 198.996 434.999V303.005C198.998 300.08 198.241 297.204 196.801 294.658C195.36 292.112 193.285 289.983 190.776 288.477L69.9596 216.054C68.7228 215.31 67.3102 214.907 65.8667 214.889C64.4232 214.87 63.0006 215.235 61.7448 215.947C60.4891 216.66 59.4453 217.693 58.7204 218.941C57.9955 220.19 57.6156 221.609 57.6197 223.052V354.513C57.6022 357.43 58.3411 360.302 59.7645 362.848C61.1879 365.395 63.2471 367.528 65.7412 369.041Z" fill="#FFBA31"/>
<path d="M70.3739 363.187L178.792 428.73C179.902 429.402 181.17 429.766 182.467 429.785C183.764 429.804 185.043 429.478 186.173 428.84C187.302 428.202 188.242 427.275 188.895 426.154C189.548 425.033 189.891 423.759 189.89 422.462V303.794C189.891 301.162 189.21 298.576 187.915 296.285C186.62 293.995 184.753 292.079 182.497 290.724L74.0798 225.674C72.9687 225.007 71.7004 224.647 70.4045 224.631C69.1086 224.615 67.8317 224.944 66.7046 225.583C65.5775 226.223 64.6407 227.151 63.99 228.272C63.3393 229.393 62.9982 230.666 63.0015 231.962V350.236C63.0129 352.846 63.6974 355.41 64.9889 357.678C66.2803 359.947 68.1351 361.844 70.3739 363.187V363.187Z" stroke="#F2F2F2" stroke-width="0.872376" stroke-miterlimit="10" stroke-linecap="round" stroke-dasharray="2.6 2.6"/>
<path d="M345.715 519.269C374.021 519.269 396.967 505.828 396.967 489.247C396.967 472.666 374.021 459.225 345.715 459.225C317.409 459.225 294.463 472.666 294.463 489.247C294.463 505.828 317.409 519.269 345.715 519.269Z" fill="#FF912E"/>
<path d="M294.463 489.247V480.574L300.042 487.493L294.463 489.247Z" fill="#E0944F"/>
<path d="M396.947 480.574V489.247H390.462L395.213 482.289L396.947 480.574Z" fill="#E0944F"/>
<path d="M345.715 510.595C374.021 510.595 396.967 497.154 396.967 480.574C396.967 463.993 374.021 450.552 345.715 450.552C317.409 450.552 294.463 463.993 294.463 480.574C294.463 497.154 317.409 510.595 345.715 510.595Z" fill="#FFB92C"/>
<path d="M371.696 476.552C372.056 477.25 372.201 478.039 372.11 478.819L371.913 479.608H362.569C362.653 479.351 362.712 479.087 362.746 478.819C362.711 478.216 362.521 477.632 362.194 477.124C361.668 476.219 360.877 475.496 359.928 475.054C358.566 474.348 357.064 473.958 355.532 473.911C354.107 473.81 352.679 474.033 351.353 474.561C350.039 475.126 349.533 475.862 349.835 476.769C350.268 477.881 350.941 478.884 351.806 479.706C352.817 480.732 353.765 481.818 354.645 482.959C355.062 483.45 355.332 484.05 355.423 484.688C355.514 485.327 355.422 485.978 355.157 486.566C354.129 488.27 352.507 489.534 350.604 490.114C347.471 491.385 344.127 492.053 340.747 492.086C337.072 492.205 333.403 491.685 329.906 490.548L324.524 492.854L318.216 489.779L323.44 487.532C322.503 486.906 321.66 486.149 320.937 485.285C320.398 484.67 319.977 483.962 319.695 483.195C319.519 482.646 319.413 482.076 319.379 481.5C319.315 481.108 319.315 480.709 319.379 480.317L319.557 479.864H328.92C328.827 480.174 328.755 480.49 328.703 480.81C328.74 481.578 329 482.318 329.452 482.939C330.2 484.106 331.277 485.025 332.547 485.58C334.239 486.436 336.094 486.92 337.988 487C339.696 487.113 341.408 486.836 342.995 486.192C344.309 485.64 344.795 484.91 344.453 484.003C344.021 482.891 343.348 481.888 342.482 481.066C341.452 480.053 340.497 478.966 339.624 477.814C339.215 477.312 338.96 476.702 338.89 476.059C338.82 475.415 338.938 474.765 339.23 474.187C340.375 472.555 342.044 471.365 343.961 470.816C346.987 469.594 350.218 468.958 353.482 468.943C356.935 468.826 360.379 469.361 363.633 470.52L368.995 468.214L374.909 471.407L369.527 473.714C370.464 474.476 371.207 475.449 371.696 476.552Z" fill="#EA8B24"/>
<path d="M345.794 506.121C369.549 506.121 388.806 494.842 388.806 480.928C388.806 467.015 369.549 455.736 345.794 455.736C322.039 455.736 302.782 467.015 302.782 480.928C302.782 494.842 322.039 506.121 345.794 506.121Z" stroke="#F7931E" stroke-width="5.23425" stroke-miterlimit="10"/>
<path d="M345.715 497.625C374.021 497.625 396.967 484.183 396.967 467.603C396.967 451.022 374.021 437.581 345.715 437.581C317.409 437.581 294.463 451.022 294.463 467.603C294.463 484.183 317.409 497.625 345.715 497.625Z" fill="#FF912E"/>
<path d="M294.463 467.603V458.929L300.042 465.868L294.463 467.603Z" fill="#E0944F"/>
<path d="M396.947 458.929V467.603H390.462L395.213 460.644L396.947 458.929Z" fill="#E0944F"/>
<path d="M345.715 488.951C374.021 488.951 396.967 475.51 396.967 458.93C396.967 442.349 374.021 428.908 345.715 428.908C317.409 428.908 294.463 442.349 294.463 458.93C294.463 475.51 317.409 488.951 345.715 488.951Z" fill="#FFB92C"/>
<path d="M371.696 454.908C372.056 455.606 372.201 456.395 372.11 457.175L371.913 457.964H362.569C362.653 457.707 362.712 457.443 362.746 457.175C362.711 456.572 362.521 455.988 362.194 455.48C361.668 454.575 360.877 453.852 359.928 453.41C358.566 452.704 357.064 452.314 355.532 452.267C354.107 452.166 352.679 452.389 351.353 452.917C350.039 453.482 349.533 454.218 349.835 455.125C350.268 456.237 350.941 457.24 351.806 458.062C352.817 459.088 353.765 460.174 354.645 461.315C355.062 461.806 355.332 462.406 355.423 463.044C355.514 463.683 355.422 464.334 355.157 464.922C354.129 466.626 352.507 467.89 350.604 468.47C347.471 469.741 344.127 470.409 340.747 470.441C337.072 470.561 333.403 470.041 329.906 468.904L324.524 471.21L318.216 468.135L323.44 465.888C322.503 465.262 321.66 464.505 320.937 463.641C320.398 463.026 319.977 462.318 319.695 461.551C319.519 461.002 319.413 460.432 319.379 459.856C319.315 459.464 319.315 459.065 319.379 458.673L319.557 458.22H328.92C328.827 458.53 328.755 458.846 328.703 459.166C328.74 459.934 329 460.673 329.452 461.295C330.2 462.462 331.277 463.381 332.547 463.936C334.239 464.792 336.094 465.276 337.988 465.356C339.696 465.469 341.408 465.192 342.995 464.548C344.309 463.996 344.795 463.266 344.453 462.359C344.021 461.247 343.348 460.244 342.482 459.422C341.452 458.408 340.497 457.321 339.624 456.17C339.215 455.668 338.96 455.058 338.89 454.415C338.82 453.771 338.938 453.121 339.23 452.543C340.368 450.896 342.039 449.692 343.961 449.132C346.987 447.91 350.218 447.275 353.482 447.26C356.935 447.142 360.379 447.677 363.633 448.837L368.995 446.53L374.909 449.724L369.527 452.03C370.469 452.804 371.212 453.79 371.696 454.908Z" fill="#EA8B24"/>
<path d="M345.794 484.477C369.549 484.477 388.806 473.198 388.806 459.284C388.806 445.371 369.549 434.092 345.794 434.092C322.039 434.092 302.782 445.371 302.782 459.284C302.782 473.198 322.039 484.477 345.794 484.477Z" stroke="#F7931E" stroke-width="1.74475" stroke-miterlimit="10"/>
<path d="M345.617 484.91C373.922 484.91 396.869 471.469 396.869 454.888C396.869 438.308 373.922 424.867 345.617 424.867C317.311 424.867 294.365 438.308 294.365 454.888C294.365 471.469 317.311 484.91 345.617 484.91Z" fill="#FF912E"/>
<path d="M294.365 454.888V446.215L299.943 453.134L294.365 454.888Z" fill="#E0944F"/>
<path d="M396.868 446.215V454.888H390.363L395.134 447.93L396.868 446.215Z" fill="#E0944F"/>
<path d="M345.617 476.237C373.922 476.237 396.869 462.796 396.869 446.215C396.869 429.634 373.922 416.193 345.617 416.193C317.311 416.193 294.365 429.634 294.365 446.215C294.365 462.796 317.311 476.237 345.617 476.237Z" fill="#FFB92C"/>
<path d="M371.558 442.194C371.919 442.891 372.063 443.681 371.972 444.461L371.775 445.249H362.431C362.515 444.993 362.574 444.729 362.608 444.461C362.574 443.858 362.383 443.274 362.056 442.765C361.53 441.86 360.739 441.138 359.79 440.696C358.428 439.99 356.926 439.599 355.394 439.552C353.97 439.452 352.541 439.674 351.215 440.203C349.901 440.768 349.395 441.504 349.697 442.411C350.13 443.523 350.803 444.526 351.668 445.348C352.679 446.374 353.627 447.46 354.507 448.6C354.924 449.092 355.194 449.691 355.285 450.33C355.376 450.968 355.284 451.619 355.019 452.208C353.991 453.912 352.369 455.176 350.466 455.756C347.333 457.026 343.99 457.695 340.61 457.727C336.934 457.847 333.265 457.327 329.768 456.189L324.386 458.496L318.078 455.421L323.302 453.174C322.365 452.548 321.522 451.791 320.799 450.926C320.26 450.312 319.839 449.604 319.557 448.837C319.381 448.287 319.275 447.718 319.241 447.142C319.177 446.75 319.177 446.35 319.241 445.959L319.419 445.505H328.782C328.689 445.816 328.617 446.132 328.565 446.452C328.602 447.219 328.863 447.959 329.314 448.581C330.063 449.747 331.139 450.666 332.409 451.222C334.101 452.078 335.956 452.562 337.85 452.641C339.558 452.754 341.27 452.478 342.857 451.833C344.171 451.281 344.657 450.552 344.315 449.645C343.883 448.532 343.21 447.529 342.344 446.708C341.314 445.694 340.359 444.607 339.486 443.455C339.077 442.953 338.822 442.344 338.752 441.7C338.682 441.056 338.8 440.406 339.092 439.828C340.206 438.101 341.896 436.823 343.862 436.221C346.888 434.999 350.119 434.363 353.383 434.348C356.836 434.231 360.28 434.766 363.535 435.925L368.897 433.619L374.81 436.812L369.389 439.276C370.336 440.061 371.079 441.062 371.558 442.194Z" fill="#EA8B24"/>
<path d="M345.715 471.762C369.47 471.762 388.727 460.483 388.727 446.57C388.727 432.657 369.47 421.378 345.715 421.378C321.96 421.378 302.703 432.657 302.703 446.57C302.703 460.483 321.96 471.762 345.715 471.762Z" stroke="#F7931E" stroke-width="5.23425" stroke-miterlimit="10"/>
<path d="M345.617 461.315C373.922 461.315 396.869 447.873 396.869 431.293C396.869 414.712 373.922 401.271 345.617 401.271C317.311 401.271 294.365 414.712 294.365 431.293C294.365 447.873 317.311 461.315 345.617 461.315Z" fill="#FF912E"/>
<path d="M294.365 431.313V422.639L299.943 429.558L294.365 431.313Z" fill="#E0944F"/>
<path d="M396.868 422.639V431.313H390.363L395.134 424.334L396.868 422.639Z" fill="#E0944F"/>
<path d="M345.617 452.661C373.922 452.661 396.869 439.22 396.869 422.639C396.869 406.058 373.922 392.617 345.617 392.617C317.311 392.617 294.365 406.058 294.365 422.639C294.365 439.22 317.311 452.661 345.617 452.661Z" fill="#FFB92C"/>
<path d="M371.558 418.618C371.919 419.315 372.063 420.105 371.972 420.885L371.775 421.673H362.431C362.515 421.417 362.574 421.153 362.608 420.885C362.574 420.282 362.383 419.698 362.056 419.19C361.53 418.284 360.739 417.562 359.79 417.12C358.428 416.414 356.926 416.023 355.394 415.976C353.97 415.876 352.541 416.098 351.215 416.627C349.901 417.192 349.395 417.928 349.697 418.835C350.13 419.947 350.803 420.95 351.668 421.772C352.679 422.798 353.627 423.884 354.507 425.024C354.924 425.516 355.194 426.115 355.285 426.754C355.376 427.392 355.284 428.043 355.019 428.632C353.991 430.336 352.369 431.6 350.466 432.18C347.333 433.45 343.99 434.119 340.61 434.151C336.934 434.271 333.265 433.751 329.768 432.614L324.386 434.92L318.078 431.845L323.302 429.598C322.365 428.972 321.522 428.215 320.799 427.35C320.26 426.736 319.839 426.028 319.557 425.261C319.381 424.711 319.275 424.142 319.241 423.566C319.177 423.174 319.177 422.775 319.241 422.383L319.419 421.93H328.782C328.689 422.24 328.617 422.556 328.565 422.876C328.602 423.643 328.863 424.383 329.314 425.005C330.063 426.171 331.139 427.091 332.409 427.646C334.101 428.502 335.956 428.986 337.85 429.065C339.558 429.178 341.27 428.902 342.857 428.257C344.171 427.705 344.657 426.976 344.315 426.069C343.883 424.957 343.21 423.953 342.344 423.132C341.314 422.118 340.359 421.031 339.486 419.879C339.077 419.378 338.822 418.768 338.752 418.124C338.682 417.481 338.8 416.83 339.092 416.252C340.206 414.525 341.896 413.247 343.862 412.645C346.888 411.423 350.119 410.787 353.383 410.772C356.836 410.655 360.28 411.19 363.535 412.349L368.897 410.043L374.81 413.236L369.389 415.622C370.346 416.428 371.09 417.457 371.558 418.618Z" fill="#EA8B24"/>
<path d="M345.715 448.186C369.47 448.186 388.727 436.907 388.727 422.994C388.727 409.081 369.47 397.802 345.715 397.802C321.96 397.802 302.703 409.081 302.703 422.994C302.703 436.907 321.96 448.186 345.715 448.186Z" stroke="#F7931E" stroke-width="1.74475" stroke-miterlimit="10"/>
<path d="M325.589 435.63C353.895 435.63 376.841 422.188 376.841 405.608C376.841 389.027 353.895 375.586 325.589 375.586C297.283 375.586 274.337 389.027 274.337 405.608C274.337 422.188 297.283 435.63 325.589 435.63Z" fill="#FF912E"/>
<path d="M274.337 405.608V396.954L279.915 403.873L274.337 405.608Z" fill="#E0944F"/>
<path d="M376.84 396.954V405.608H370.335L375.086 398.649L376.84 396.954Z" fill="#E0944F"/>
<path d="M325.589 426.956C353.895 426.956 376.841 413.515 376.841 396.934C376.841 380.354 353.895 366.912 325.589 366.912C297.283 366.912 274.337 380.354 274.337 396.934C274.337 413.515 297.283 426.956 325.589 426.956Z" fill="#FFB92C"/>
<path d="M351.57 392.933C351.931 393.63 352.075 394.42 351.984 395.2L351.787 395.988H342.443C342.527 395.732 342.587 395.468 342.621 395.2C342.586 394.596 342.396 394.013 342.069 393.504C341.542 392.599 340.751 391.877 339.802 391.435C338.441 390.729 336.938 390.338 335.406 390.291C333.982 390.191 332.553 390.413 331.227 390.942C329.913 391.507 329.407 392.243 329.709 393.15C330.142 394.262 330.815 395.265 331.68 396.087C332.691 397.112 333.639 398.199 334.519 399.339C334.937 399.831 335.207 400.43 335.297 401.069C335.388 401.707 335.296 402.358 335.031 402.947C334.004 404.651 332.382 405.915 330.478 406.495C327.345 407.765 324.002 408.434 320.622 408.466C316.946 408.586 313.277 408.066 309.78 406.928L304.399 409.235L298.091 406.16L303.314 403.912C302.377 403.287 301.534 402.53 300.811 401.665C300.272 401.051 299.851 400.343 299.569 399.576C299.393 399.026 299.287 398.457 299.254 397.881C299.19 397.489 299.19 397.089 299.254 396.698L299.431 396.244H308.794C308.702 396.555 308.629 396.871 308.578 397.191C308.614 397.958 308.875 398.698 309.327 399.32C310.075 400.486 311.152 401.405 312.421 401.961C314.113 402.817 315.968 403.301 317.862 403.38C319.571 403.493 321.283 403.217 322.869 402.572C324.183 402.02 324.669 401.291 324.328 400.384C323.896 399.271 323.222 398.268 322.356 397.447C321.326 396.433 320.371 395.346 319.498 394.194C319.089 393.692 318.834 393.083 318.764 392.439C318.694 391.795 318.812 391.145 319.104 390.567C320.219 388.84 321.908 387.562 323.874 386.96C326.901 385.738 330.132 385.102 333.395 385.087C336.848 384.97 340.293 385.505 343.547 386.664L348.909 384.358L354.823 387.551L349.343 389.996C350.313 390.779 351.077 391.787 351.57 392.933Z" fill="#EA8B24"/>
<path d="M325.668 422.501C349.423 422.501 368.68 411.222 368.68 397.309C368.68 383.396 349.423 372.117 325.668 372.117C301.913 372.117 282.655 383.396 282.655 397.309C282.655 411.222 301.913 422.501 325.668 422.501Z" stroke="#F7931E" stroke-width="1.74475" stroke-miterlimit="10"/>
<path d="M397.874 1.66335C425.293 18.8328 494.267 58.829 517.784 73.1599C523.106 76.4321 523.914 81.301 524.013 87.5498V379.43C522.564 381.117 520.558 382.23 518.36 382.567C516.161 382.903 513.915 382.44 512.028 381.263L396.297 315.858C390.541 312.467 386.007 308.978 386.007 302.296L387.012 6.94624C386.973 0.500323 392.453 -1.7863 397.874 1.66335Z" fill="#1F8EBE"/>
<path d="M387.19 4.81731L424.82 26.5008V34.6223C424.828 35.307 425.014 35.9778 425.359 36.5689C425.705 37.16 426.199 37.6508 426.792 37.9931L455.887 54.8865C456.279 55.1374 456.732 55.2766 457.198 55.2894C457.663 55.3021 458.123 55.1879 458.528 54.9589C458.934 54.7299 459.269 54.3948 459.498 53.9896C459.727 53.5844 459.842 53.1244 459.829 52.6591V46.7454L514.492 78.7976C515.014 79.1038 515.447 79.5416 515.748 80.0672C516.049 80.5929 516.207 81.1881 516.207 81.7938V373.634C516.193 374.043 516.074 374.441 515.861 374.79C515.648 375.139 515.348 375.427 514.991 375.626C514.634 375.824 514.231 375.927 513.822 375.923C513.413 375.92 513.012 375.81 512.658 375.606L385.967 302.276C385.755 304.541 386.161 306.821 387.144 308.873C388.126 310.925 389.648 312.671 391.546 313.926C398.11 318.105 513.447 383.372 513.447 383.372C513.447 383.372 522.574 387.492 525.274 376.611V82.8977C525.278 80.9989 524.832 79.1263 523.972 77.4335C523.112 75.7407 521.862 74.276 520.326 73.1598C515.044 69.3159 397.401 0.933989 397.401 0.933989C397.401 0.933989 389.082 -2.85077 387.19 4.81731Z" fill="#440495"/>
<path d="M407.493 205.587V205.114C407.491 203.96 407.794 202.826 408.371 201.827C408.948 200.828 409.779 200 410.78 199.425C411.781 198.851 412.915 198.551 414.069 198.557C415.223 198.562 416.354 198.873 417.35 199.457L478.694 235.254C479.684 235.83 480.505 236.656 481.076 237.648C481.647 238.641 481.947 239.766 481.947 240.911C481.952 242.067 481.652 243.203 481.077 244.205C480.501 245.207 479.67 246.038 478.669 246.615C477.668 247.192 476.532 247.493 475.376 247.488C474.221 247.484 473.087 247.173 472.091 246.589L410.746 211.244C409.756 210.668 408.935 209.843 408.364 208.85C407.794 207.857 407.493 206.732 407.493 205.587Z" fill="#440495"/>
<path d="M442.719 203.498C437.978 203.629 433.3 204.632 428.921 206.454C421.982 209.431 442.443 215.463 442.443 215.463" fill="#F2AE16"/>
<path d="M444.493 230.582C450.407 233.914 456.104 237.817 461.978 241.286C464.052 238.215 465.389 234.707 465.885 231.035C466.381 227.363 466.022 223.626 464.836 220.115C460.894 207.815 448.515 200.797 437.239 204.345C433.965 205.458 431.019 207.369 428.669 209.905C426.318 212.442 424.636 215.524 423.776 218.873C430.793 222.776 437.633 226.719 444.493 230.582Z" fill="#EA8B24"/>
<path d="M444.494 230.582C448.988 233.105 453.325 235.944 457.721 238.684C460.057 233.194 460.309 227.04 458.431 221.377C454.488 209.076 442.109 202.059 430.833 205.607C428.227 206.471 425.823 207.855 423.767 209.675C421.71 211.494 420.044 213.711 418.868 216.192C427.561 220.923 436.018 225.812 444.494 230.582Z" fill="#FFD008"/>
<path d="M445.203 229.873C448.889 231.844 452.457 234.229 456.065 236.496C458.046 231.725 458.242 226.399 456.616 221.495C453.127 210.712 442.325 204.562 432.489 207.696C430.229 208.445 428.143 209.64 426.355 211.211C424.567 212.783 423.113 214.698 422.081 216.843C429.827 221.14 437.496 225.556 445.203 229.873V229.873Z" stroke="#F7931E" stroke-width="0.872376" stroke-miterlimit="10"/>
<path d="M444.493 230.582L445.656 231.252C445.682 230.094 445.329 228.959 444.651 228.02C443.972 227.137 443.065 226.456 442.029 226.048C440.991 225.628 439.959 225.26 438.934 224.945C438.022 224.676 437.147 224.292 436.332 223.801C436.015 223.632 435.749 223.379 435.565 223.07C435.381 222.761 435.285 222.407 435.288 222.047C435.286 221.731 435.36 221.419 435.504 221.138C435.648 220.856 435.858 220.614 436.115 220.43C436.726 219.971 437.482 219.747 438.244 219.8C438.981 219.818 439.703 220.007 440.354 220.352C440.835 220.575 441.286 220.86 441.694 221.199L442.187 221.731L444.986 218.873L444.493 218.341C443.995 217.856 443.431 217.445 442.818 217.119C441.982 216.642 441.078 216.296 440.137 216.094V213.117H436.194V216.054C434.6 216.255 433.124 217 432.015 218.164C430.989 219.22 430.409 220.633 430.399 222.106C430.387 222.349 430.387 222.592 430.399 222.835L444.493 230.582Z" fill="#EA8B24"/>
<path d="M475.481 126.048C478.221 148.027 468.148 167.247 452.812 168.824C437.476 170.401 422.928 153.98 420.168 132.001C417.409 110.022 427.561 90.8615 442.838 89.2057C458.115 87.5498 472.721 104.049 475.481 126.048Z" fill="#440495"/>
<path d="M428.645 131.469L433.139 124.392L441.182 136.673L459.061 109.056L466.138 114.851L441.872 151.654L428.645 131.469Z" fill="white"/>
<path d="M145.615 250.038C145.714 248.714 145.899 247.397 146.167 246.096" stroke="#42210B" stroke-width="1.74475" stroke-miterlimit="10" stroke-linecap="round"/>
<path d="M150.918 229.459C160.774 202.808 188.371 157.036 261.898 133.834C375.066 98.2536 427.245 175.94 442.817 206.277" stroke="#42210B" stroke-width="1.74475" stroke-miterlimit="10" stroke-linecap="round" stroke-dasharray="3.4 7.65"/>
<path d="M446.465 214.083C447.49 216.409 447.963 217.73 447.963 217.73" stroke="#42210B" stroke-width="1.74475" stroke-miterlimit="10" stroke-linecap="round"/>
<path d="M277.707 90.3687C269.543 90.796 261.527 92.7134 254.053 96.0261C242.225 101.447 277.707 111.067 277.707 111.067" fill="#F2AE16"/>
<path d="M295.101 168.59C314.365 161.871 324.013 139.316 316.652 118.212C309.29 97.1085 287.707 85.448 268.443 92.1676C249.18 98.8872 239.531 121.442 246.893 142.546C254.254 163.649 275.838 175.31 295.101 168.59Z" fill="#EA8B24"/>
<path d="M284.064 171.025C303.328 164.306 312.976 141.75 305.615 120.647C298.253 99.5434 276.67 87.8829 257.406 94.6025C238.143 101.322 228.494 123.877 235.855 144.981C243.217 166.084 264.801 177.745 284.064 171.025Z" fill="#FFD008"/>
<path d="M282.416 166.298C299.305 160.406 307.767 140.639 301.316 122.147C294.865 103.654 275.945 93.4388 259.056 99.33C242.167 105.221 233.705 124.988 240.156 143.481C246.606 161.973 265.527 172.189 282.416 166.298Z" stroke="#F7931E" stroke-width="0.872376" stroke-miterlimit="10"/>
<path d="M278.476 113.767C279.549 114.283 280.545 114.946 281.433 115.738L282.281 116.645L277.53 121.692C277.32 121.455 277.031 121.159 276.663 120.804C275.944 120.239 275.156 119.769 274.317 119.405C273.178 118.836 271.923 118.539 270.65 118.538C269.332 118.482 268.038 118.901 267.004 119.72C266.574 120.054 266.226 120.481 265.987 120.97C265.748 121.458 265.624 121.995 265.624 122.539C265.641 123.17 265.835 123.784 266.183 124.31C266.532 124.836 267.021 125.254 267.595 125.516C269.022 126.366 270.552 127.029 272.149 127.487C273.936 127.999 275.73 128.597 277.53 129.281C279.341 129.972 280.929 131.144 282.123 132.671C283.456 134.387 284.153 136.512 284.094 138.684C284.158 141.356 283.224 143.957 281.473 145.977C279.527 148.091 276.92 149.481 274.08 149.92V155.064H267.083V150.176C265.736 149.976 264.414 149.632 263.14 149.151C262.042 148.757 260.985 148.255 259.986 147.653C259.221 147.176 258.484 146.656 257.778 146.095C257.288 145.716 256.827 145.301 256.399 144.853L255.965 144.321L260.656 139.649C260.893 139.925 261.235 140.28 261.681 140.714C262.575 141.431 263.563 142.021 264.619 142.468C266.102 143.2 267.735 143.578 269.389 143.572C270.994 143.66 272.579 143.179 273.864 142.212C274.373 141.804 274.783 141.284 275.059 140.693C275.336 140.102 275.473 139.455 275.46 138.802C275.442 138.169 275.249 137.553 274.9 137.024C274.552 136.494 274.064 136.073 273.489 135.806C272.109 134.922 270.617 134.226 269.054 133.736C267.253 133.236 265.46 132.645 263.672 131.962C261.869 131.267 260.288 130.095 259.099 128.571C257.766 126.856 257.069 124.731 257.128 122.559C257.106 120.047 258.044 117.621 259.75 115.778C261.637 113.752 264.163 112.436 266.905 112.052V106.947H273.804V112.052C275.441 112.38 277.017 112.958 278.476 113.767Z" fill="#EA8B24"/>
<path opacity="0.46" d="M546.09 371.151L479.502 405.608L562.767 457.668L625.314 427.863" fill="url(#paint4_linear_302_1427)"/>
<path d="M568.168 374.226C567.538 373.457 549.264 369.278 546.091 371.091C542.917 372.905 547.254 377.892 555.493 382.741C563.733 387.591 570.79 391.829 574.121 390.764C577.453 389.7 581.04 387.807 581.04 385.915V366.696" fill="#1D3F75"/>
<path d="M608.775 409.136C608.775 410.24 610.983 414.675 608.775 415.76C606.568 416.844 591.705 420.333 588.669 424.512C585.633 428.691 586.698 431.904 588.669 433.008C590.64 434.112 625.294 427.863 625.294 427.863L621.155 404.208" fill="#1F8EBE"/>
<path d="M598.88 220.884C598.88 220.884 596.908 212.644 585.081 208.938C573.254 205.232 574.811 231.548 574.811 231.548" fill="#B102CD"/>
<path d="M576.27 261.609C575.028 262.142 545.065 284.338 547.628 318.341C549.185 338.862 564.127 373.358 564.127 373.358C564.127 373.358 588.255 388.714 603.867 384.811" fill="black"/>
<path d="M569.824 271.426C569.824 271.426 561.801 306.238 564.778 327.882C567.754 349.526 598.88 411.679 598.88 411.679C609.748 412.763 620.724 411.712 631.189 408.584C631.189 408.584 612.344 335.097 610.648 326.956C608.953 318.814 610.648 274.817 610.648 274.817" fill="black"/>
<path d="M581.179 211.323C581.179 211.323 536.195 191.769 524.013 184.672C524.013 184.672 524.604 199.161 525.235 200.994C525.866 202.827 560.717 237.146 577.039 239.926" fill="#B102CD"/>
<path d="M609.091 273.082C604.662 259.218 600.72 245.222 597.263 231.095C596.889 229.597 594.583 230.227 594.937 231.726C598.394 245.853 602.336 259.848 606.765 273.713C607.238 275.191 609.564 274.56 609.091 273.082Z" fill="#606060"/>
<path d="M535.367 225.772C530.742 223.477 526.484 220.507 522.731 216.961C522.968 212.861 523.224 203.557 518.513 204.483C516.246 204.937 516.542 207.539 516.542 209.332C516.542 210.919 516.627 212.505 516.798 214.083C511.495 216.212 502.999 213.235 500.161 218.577C500.019 218.823 499.944 219.102 499.944 219.386C499.944 219.669 500.019 219.948 500.161 220.194C500.312 220.407 500.491 220.6 500.693 220.766C499.855 221.165 499.12 221.752 498.545 222.48C498.376 222.656 498.248 222.867 498.171 223.099C498.095 223.33 498.07 223.575 498.101 223.817C498.131 224.059 498.215 224.291 498.346 224.496C498.477 224.702 498.653 224.875 498.86 225.004C499.168 225.238 499.506 225.43 499.865 225.575C499.846 225.726 499.846 225.878 499.865 226.029C499.865 227.842 501.285 228.65 503.492 228.867C503.863 229.806 504.558 230.581 505.451 231.052C506.345 231.522 507.377 231.656 508.361 231.43C511.414 231.137 514.435 230.576 517.389 229.754C520.589 231.076 523.709 232.583 526.733 234.268C527.055 234.427 527.42 234.474 527.772 234.405C528.124 234.335 528.443 234.152 528.68 233.883C528.918 233.614 529.06 233.275 529.086 232.917C529.112 232.559 529.019 232.203 528.823 231.903C529.177 231.693 529.435 231.353 529.542 230.955C529.649 230.557 529.596 230.133 529.394 229.774C529.636 229.484 529.776 229.123 529.794 228.746C529.812 228.369 529.706 227.996 529.493 227.685C529.76 227.67 530.019 227.588 530.247 227.447C530.474 227.305 530.662 227.109 530.794 226.876C531.799 227.468 532.765 228.02 533.869 228.552C535.584 229.459 537.141 226.699 535.367 225.772Z" fill="#FBB5AD"/>
<path d="M513.329 218.834C509.136 219.805 504.838 220.242 500.535 220.135C500.428 220.135 500.325 220.177 500.25 220.253C500.174 220.329 500.131 220.432 500.131 220.539C500.131 220.646 500.174 220.749 500.25 220.825C500.325 220.9 500.428 220.943 500.535 220.943C504.911 221.047 509.283 220.597 513.546 219.602C514.058 219.484 513.841 218.715 513.329 218.834Z" fill="#56403D"/>
<path d="M511.515 224.412C507.783 225.323 503.936 225.669 500.102 225.437C499.589 225.437 499.589 226.206 500.102 226.246C504.002 226.478 507.916 226.126 511.712 225.201C512.146 224.984 511.929 224.215 511.515 224.412Z" fill="#56403D"/>
<path d="M510.687 227.547C508.367 228.222 505.967 228.58 503.551 228.611C503.444 228.611 503.341 228.654 503.266 228.729C503.19 228.805 503.147 228.908 503.147 229.015C503.147 229.122 503.19 229.225 503.266 229.301C503.341 229.377 503.444 229.419 503.551 229.419C506.04 229.391 508.513 229.026 510.904 228.335C511.009 228.306 511.097 228.237 511.151 228.143C511.205 228.049 511.219 227.937 511.19 227.832C511.161 227.728 511.092 227.639 510.998 227.585C510.903 227.532 510.792 227.518 510.687 227.547Z" fill="#56403D"/>
<path d="M566.709 251.655C566.315 255.341 567.833 263.857 569.785 271.367C576.408 275.309 584.648 276.768 592.237 276.985C598.437 277.236 604.638 276.504 610.609 274.817C609.663 256.583 602.724 215.167 593.912 216.015C582.834 217.099 571.933 230.188 571.933 230.188C551.393 233.204 524.624 213.433 524.624 213.433L518.966 230.76C531.709 243.448 548.743 250.902 566.709 251.655Z" fill="#B102CD"/>
<path d="M584.451 378.72C574.628 350.397 569.994 320.535 570.77 290.567C570.77 290.436 570.718 290.311 570.626 290.218C570.534 290.126 570.408 290.074 570.277 290.074C570.147 290.074 570.021 290.126 569.929 290.218C569.837 290.311 569.785 290.436 569.785 290.567C569.033 320.626 573.708 350.575 583.583 378.976C583.721 379.588 584.687 379.331 584.451 378.72Z" fill="white"/>
<path d="M575.678 229.695C568.133 230.552 560.493 229.759 553.285 227.369C552.674 227.172 552.418 228.118 553.029 228.335C560.324 230.757 568.059 231.565 575.698 230.7C576.309 230.622 576.309 229.636 575.678 229.695Z" fill="#204472"/>
<path d="M566.71 251.655H572.347L569.785 271.367C569.785 271.367 567.045 256.977 566.71 251.655Z" fill="#B102CD"/>
<path d="M586.048 207.42C582.499 209.293 578.163 206.257 575.186 204.365C571.638 202.078 568.05 198.096 570.081 193.602C570.376 192.932 569.312 192.538 568.996 193.208C566.887 197.88 570.199 202.374 573.964 205.035C577.315 207.302 582.401 210.752 586.521 208.564C587.191 208.11 586.718 207.065 586.048 207.42Z" fill="#009245"/>
<path d="M569.035 189.916C569.035 189.916 560.421 213.433 568.503 218.124C577.374 223.269 586.638 214.458 586.638 214.458C586.638 214.458 595.45 194.134 586.638 188.832C577.827 183.529 570.415 186.959 569.035 189.916Z" fill="#FBB5AD"/>
<path d="M570.514 208.386C570.289 208.317 570.081 208.203 569.903 208.051C570.889 205.928 571.981 203.856 573.175 201.842C573.261 201.69 573.284 201.51 573.237 201.342C573.191 201.174 573.08 201.031 572.928 200.945C572.777 200.859 572.597 200.836 572.429 200.882C572.261 200.928 572.118 201.04 572.031 201.191C570.75 203.348 569.585 205.572 568.542 207.854C568.476 207.98 568.449 208.123 568.467 208.264C568.484 208.405 568.545 208.537 568.641 208.642C569.039 209.122 569.566 209.477 570.159 209.667C570.967 209.943 571.302 208.642 570.514 208.386Z" fill="#56403D"/>
<path d="M598.426 201.842C599.451 196.894 597.184 193.484 593.991 189.6C593.728 189.285 593.459 188.983 593.183 188.694C594.202 188.327 595.125 187.734 595.883 186.959C595.969 186.883 596.033 186.786 596.071 186.678C596.108 186.571 596.118 186.455 596.098 186.342C596.078 186.23 596.03 186.124 595.958 186.035C595.886 185.946 595.792 185.878 595.686 185.835C595.147 185.662 594.578 185.603 594.015 185.66C593.452 185.718 592.907 185.892 592.414 186.17C592.296 185.026 591.975 183.911 591.468 182.878C591.415 182.779 591.339 182.694 591.246 182.632C591.152 182.57 591.045 182.532 590.933 182.522C590.821 182.512 590.708 182.531 590.605 182.576C590.503 182.621 590.413 182.691 590.344 182.78C589.998 183.167 589.74 183.625 589.59 184.123C589.441 184.62 589.402 185.144 589.477 185.658C585.565 183.217 580.9 182.278 576.348 183.016C574.679 183.308 573.1 183.983 571.736 184.988C570.63 184.445 569.393 184.226 568.168 184.357C566.86 184.454 565.622 184.983 564.648 185.861C563.673 186.739 563.019 187.916 562.786 189.206C562.372 192.242 565.014 194.292 567.734 194.765C569.13 194.997 570.561 194.868 571.893 194.39C570.651 195.396 569.666 196.894 571.893 198.333C575.836 200.896 578.832 199.082 578.32 201.329C577.906 203.162 579.975 205.035 581.71 205.705C581.71 206.021 581.71 206.849 581.828 207.972C582.805 208 583.757 208.286 584.588 208.8C584.686 208.749 584.794 208.721 584.905 208.72C585.015 208.718 585.125 208.742 585.224 208.79C585.324 208.837 585.411 208.908 585.478 208.995C585.546 209.083 585.592 209.185 585.613 209.293C586.165 212.407 584.805 215.069 583.129 217.828C586.187 216.677 588.992 214.943 591.389 212.723C594.749 209.863 597.196 206.08 598.426 201.842ZM590.797 184.771V185.106C590.786 185.178 590.786 185.251 590.797 185.323V185.993C590.692 185.592 590.692 185.171 590.797 184.771Z" fill="#1C7377"/>
<path d="M574.299 210.357C573.645 211.039 572.753 211.442 571.809 211.483C570.865 211.523 569.942 211.198 569.233 210.574C568.799 210.219 568.287 210.929 568.72 211.284C569.586 212.022 570.699 212.405 571.836 212.357C572.972 212.31 574.049 211.835 574.851 211.028C575.245 210.614 574.693 209.963 574.299 210.357Z" fill="#56403D"/>
<path d="M574.437 206.671C574.275 206.611 574.095 206.618 573.938 206.69C573.781 206.762 573.659 206.894 573.599 207.056C573.539 207.218 573.546 207.397 573.618 207.554C573.69 207.711 573.821 207.833 573.983 207.893C574.146 207.954 574.325 207.947 574.482 207.875C574.639 207.803 574.761 207.671 574.821 207.509C574.881 207.347 574.875 207.168 574.803 207.01C574.73 206.853 574.599 206.731 574.437 206.671Z" fill="#56403D"/>
<path d="M567.439 202.216C567.277 202.156 567.098 202.163 566.941 202.235C566.783 202.307 566.661 202.439 566.601 202.601C566.541 202.763 566.548 202.942 566.62 203.099C566.692 203.256 566.824 203.378 566.986 203.438C567.148 203.499 567.327 203.492 567.484 203.42C567.641 203.348 567.763 203.216 567.823 203.054C567.884 202.892 567.877 202.713 567.805 202.556C567.733 202.398 567.601 202.276 567.439 202.216Z" fill="#56403D"/>
<path d="M580.804 209.667C580.804 209.667 586.382 201.487 587.821 205.37C589.26 209.254 580.271 213.255 580.271 213.255" fill="#FBB5AD"/>
<defs>
<linearGradient id="paint0_linear_302_1427" x1="350.792" y1="161.026" x2="350.792" y2="574" gradientUnits="userSpaceOnUse">
<stop stop-color="#1F8EBE"/>
<stop offset="0.314857" stop-color="#440495"/>
<stop offset="0.679462" stop-color="#440495"/>
<stop offset="1" stop-color="#B102CD"/>
</linearGradient>
<linearGradient id="paint1_linear_302_1427" x1="153.835" y1="371.663" x2="115.101" y2="426.562" gradientUnits="userSpaceOnUse">
<stop/>
<stop offset="1" stop-color="white"/>
</linearGradient>
<linearGradient id="paint2_linear_302_1427" x1="341.063" y1="477.696" x2="299.884" y2="523.132" gradientUnits="userSpaceOnUse">
<stop/>
<stop offset="1" stop-color="white"/>
</linearGradient>
<linearGradient id="paint3_linear_302_1427" x1="452.792" y1="317.927" x2="386.559" y2="391.001" gradientUnits="userSpaceOnUse">
<stop/>
<stop offset="1" stop-color="white"/>
</linearGradient>
<linearGradient id="paint4_linear_302_1427" x1="608.026" y1="362.201" x2="550.131" y2="418.973" gradientUnits="userSpaceOnUse">
<stop/>
<stop offset="1" stop-color="white"/>
</linearGradient>
</defs>
</svg>
