<svg width="55" height="48" viewBox="0 0 55 48" fill="none" xmlns="http://www.w3.org/2000/svg">
<g clip-path="url(#clip0_300_1319)">
<path d="M48.4366 0.978727L48.4444 0.98804L48.4525 0.996967L53.9525 6.99612L53.9679 7.0129L53.9848 7.02821C54.3316 7.34351 54.5 7.77523 54.5 8.24917C54.5 8.7391 54.3243 9.13892 54.027 9.35512L53.9864 9.38463L53.9525 9.42162L48.4525 15.4216L48.4374 15.4382L48.4238 15.456C47.903 16.1377 46.9772 16.1691 46.3585 15.4368L46.3447 15.4205L46.3296 15.4054C45.7356 14.8131 45.7113 13.6931 46.3469 12.9923L46.347 12.9923L46.3508 12.9879L48.336 10.7473L49.0727 9.91574H47.9617H33C32.1505 9.91574 31.4375 9.22911 31.4375 8.24917C31.4375 7.24058 32.1739 6.49917 33 6.49918L33.0028 6.49917L47.9645 6.41573L49.1259 6.40925L48.323 5.57006L46.3424 3.50017C45.721 2.81239 45.7221 1.68296 46.3455 0.996643C46.9658 0.322897 47.9158 0.35231 48.4366 0.978727ZM8.60976 34.8895L8.58595 34.9112L8.56511 34.9357L6.66074 37.1763L5.95531 38.0063L7.04455 38.0001L21.9227 37.9157C21.9231 37.9157 21.9236 37.9157 21.924 37.9157C22.8046 37.9166 23.4852 38.7124 23.4852 39.6657C23.4852 40.2206 23.3095 40.657 23.0424 40.9491C22.7786 41.2378 22.3993 41.4157 21.9227 41.4157L21.9198 41.4157L7.03974 41.5001L5.93974 41.5064L6.66774 42.331L8.57126 44.4873L8.5811 44.4984L8.5916 44.509C9.2845 45.2056 9.25775 46.3004 8.60976 46.8895L8.57625 46.92L8.54876 46.956C8.02768 47.6381 7.10228 47.6686 6.4866 46.9374L6.47982 46.9294L6.47271 46.9216L0.972629 40.9216L0.953789 40.9011L0.932781 40.8827C0.687669 40.6689 0.499926 40.2559 0.5 39.6658V39.6657C0.5 39.2787 0.668044 38.8265 0.97268 38.4943L0.972718 38.4942L6.47145 32.4956C6.47169 32.4953 6.47193 32.4951 6.47216 32.4948C7.08962 31.8271 8.04163 31.8554 8.56283 32.4775L8.57654 32.4938L8.5916 32.509C9.2845 33.2056 9.25775 34.3004 8.60976 34.8895ZM50.9694 18.037L51.75 17.1811V36.0001C51.75 39.0752 49.4674 41.5001 46.75 41.5001H26.6809C26.8397 40.9282 26.8914 40.3184 26.8914 39.6657C26.8914 36.8369 24.7933 34.2907 21.9227 34.2907L21.9176 34.2908L14.0605 34.371C13.6857 32.8171 12.8 31.4794 11.5894 30.5943C11.4389 30.3727 11.2707 30.1645 11.1013 29.9709L11.1014 29.9708L11.0936 29.9622C9.15202 27.8442 5.98148 27.843 4.03767 29.9583L3.17266 30.863V12.0001C3.17266 8.92507 5.52396 6.50011 8.17266 6.50011H28.3003C28.1252 7.04193 28.0312 7.61167 28.0312 8.16574C28.0312 11.1809 30.2228 13.5407 33 13.5407H40.9326C41.2988 15.1693 42.1942 16.5168 43.4106 17.4059C43.5611 17.6275 43.7293 17.8357 43.8987 18.0294L43.8986 18.0295L43.9064 18.038C45.8491 20.1573 49.0259 20.1573 50.9686 18.038L50.9694 18.037ZM7.67266 18.0001V18.5001H8.17266C11.6042 18.5001 14.1727 15.539 14.1727 12.0001V11.5001H13.6727H8.17266H7.67266V12.0001V18.0001ZM46.75 36.5001H47.25V36.0001V30.0001V29.5001H46.75C43.4002 29.5001 40.75 32.4564 40.75 36.0001V36.5001H41.25H46.75ZM27.4227 33.5001C32.368 33.5001 36.25 29.2063 36.25 24.0001C36.25 18.7064 32.3651 14.5001 27.4227 14.5001C22.5547 14.5001 18.6727 18.7095 18.6727 24.0001C18.6727 29.2032 22.5518 33.5001 27.4227 33.5001Z" fill="white" stroke="black"/>
</g>
<defs>
<clipPath id="clip0_300_1319">
<rect width="55" height="48" fill="white"/>
</clipPath>
</defs>
</svg>
