<svg width="95" height="95" viewBox="0 0 95 95" fill="none" xmlns="http://www.w3.org/2000/svg">
<path d="M47.4998 7.91666C26.0417 7.91666 7.9165 26.0419 7.9165 47.5C7.9165 68.9581 26.0417 87.0833 47.4998 87.0833C68.958 87.0833 87.0832 68.9581 87.0832 47.5C87.0832 26.0419 68.958 7.91666 47.4998 7.91666ZM47.4998 27.7083C54.3359 27.7083 59.3748 32.7433 59.3748 39.5833C59.3748 46.4233 54.3359 51.4583 47.4998 51.4583C40.6678 51.4583 35.6248 46.4233 35.6248 39.5833C35.6248 32.7433 40.6678 27.7083 47.4998 27.7083ZM27.2886 66.3892C30.8392 61.1642 36.7609 57.6808 43.5415 57.6808H51.4582C58.2428 57.6808 64.1605 61.1642 67.7111 66.3892C62.6523 71.8042 55.4759 75.2083 47.4998 75.2083C39.5238 75.2083 32.3473 71.8042 27.2886 66.3892Z" fill="black"/>
</svg>
