<svg width="72" height="53" viewBox="0 0 72 53" fill="none" xmlns="http://www.w3.org/2000/svg">
<path d="M0 8.83333C0 6.49059 0.948211 4.24379 2.63604 2.58722C4.32387 0.930652 6.61305 0 9 0H63C65.3869 0 67.6761 0.930652 69.364 2.58722C71.0518 4.24379 72 6.49059 72 8.83333V30.9167H0V8.83333ZM51.75 13.25C51.1533 13.25 50.581 13.4827 50.159 13.8968C49.7371 14.3109 49.5 14.8726 49.5 15.4583V19.875C49.5 20.4607 49.7371 21.0224 50.159 21.4365C50.581 21.8507 51.1533 22.0833 51.75 22.0833H60.75C61.3467 22.0833 61.919 21.8507 62.341 21.4365C62.763 21.0224 63 20.4607 63 19.875V15.4583C63 14.8726 62.763 14.3109 62.341 13.8968C61.919 13.4827 61.3467 13.25 60.75 13.25H51.75ZM0 39.75V44.1667C0 46.5094 0.948211 48.7562 2.63604 50.4128C4.32387 52.0693 6.61305 53 9 53H63C65.3869 53 67.6761 52.0693 69.364 50.4128C71.0518 48.7562 72 46.5094 72 44.1667V39.75H0Z" fill="white"/>
</svg>
