<svg width="48" height="48" viewBox="0 0 48 48" fill="none" xmlns="http://www.w3.org/2000/svg">
<path d="M15.8399 29.02H32.1599M10.3499 4.50001C9.82818 4.51305 9.33223 4.72951 8.9679 5.10318C8.60358 5.47685 8.39974 5.97812 8.3999 6.50001V41.6C8.39974 42.1219 8.60358 42.6232 8.9679 42.9968C9.33223 43.3705 9.82818 43.587 10.3499 43.6H37.6499C38.1803 43.6 38.689 43.3893 39.0641 43.0142C39.4392 42.6391 39.6499 42.1304 39.6499 41.6V14.49H31.6499C31.1282 14.477 30.6322 14.2605 30.2679 13.8868C29.9036 13.5132 29.6997 13.0119 29.6999 12.49V4.49001L10.3499 4.50001ZM29.6099 4.50001L39.5999 14.49L29.6099 4.50001ZM15.8399 22.97H32.1599H15.8399ZM15.8399 35.07H32.1599H15.8399Z" stroke="black" stroke-linecap="round" stroke-linejoin="round"/>
</svg>
