<svg width="33" height="57" viewBox="0 0 33 57" fill="none" xmlns="http://www.w3.org/2000/svg">
<path d="M17.875 25.0625C10.7812 23.2187 8.5 21.3125 8.5 18.3438C8.5 14.9375 11.6562 12.5625 16.9375 12.5625C22.5 12.5625 24.5625 15.2188 24.75 19.125H31.6562C31.4375 13.75 28.1562 8.8125 21.625 7.21875V0.375H12.25V7.125C6.1875 8.4375 1.3125 12.375 1.3125 18.4063C1.3125 25.625 7.28125 29.2187 16 31.3125C23.8125 33.1875 25.375 35.9375 25.375 38.8438C25.375 41 23.8437 44.4375 16.9375 44.4375C10.5 44.4375 7.96875 41.5625 7.625 37.875H0.75C1.125 44.7188 6.25 48.5625 12.25 49.8437V56.625H21.625V49.9063C27.7187 48.75 32.5625 45.2188 32.5625 38.8125C32.5625 29.9375 24.9687 26.9062 17.875 25.0625Z" fill="white"/>
</svg>
