<svg width="39" height="34" viewBox="0 0 39 34" fill="none" xmlns="http://www.w3.org/2000/svg">
<path d="M37.05 0H7.8C6.76566 0 5.77368 0.352394 5.04228 0.979659C4.31089 1.60692 3.9 2.45768 3.9 3.34477V8.36192H0V11.7067H3.9V15.0514H0V18.3962H3.9V21.741H0V25.0857H3.9V30.1029C3.9 30.99 4.31089 31.8407 5.04228 32.468C5.77368 33.0953 6.76566 33.4477 7.8 33.4477H37.05C37.5672 33.4477 38.0632 33.2715 38.4289 32.9578C38.7946 32.6442 39 32.2188 39 31.7753V1.67238C39 1.22884 38.7946 0.803462 38.4289 0.48983C38.0632 0.176197 37.5672 0 37.05 0ZM21.45 5.01548C24.6636 5.01548 27.3 7.27487 27.3 10.0326C27.2944 11.3619 26.6763 12.6354 25.5805 13.5755C24.4846 14.5156 23 15.0462 21.45 15.0514C18.2383 15.0514 15.6 12.7887 15.6 10.0326C15.6 7.27487 18.2383 5.01548 21.45 5.01548ZM33.15 26.7581H9.75V25.5038C9.75 21.7928 15.0247 17.9781 21.45 17.9781C27.8753 17.9781 33.15 21.7928 33.15 25.5038V26.7581Z" fill="url(#paint0_linear_21_420)"/>
<defs>
<linearGradient id="paint0_linear_21_420" x1="19.5" y1="0" x2="19.5" y2="33.4477" gradientUnits="userSpaceOnUse">
<stop stop-color="#1F8EBE"/>
<stop offset="0.307292" stop-color="#440495"/>
<stop offset="0.682192" stop-color="#440495"/>
<stop offset="1" stop-color="#B102CD"/>
</linearGradient>
</defs>
</svg>
