<svg width="104" height="66" viewBox="0 0 104 66" fill="none" xmlns="http://www.w3.org/2000/svg">
<path d="M68.6337 27.6222H77.9935V22.2444H72.645V19.5556H67.2966V22.3789C65.6718 22.7106 64.2275 23.6376 63.2442 24.9798C62.2609 26.3219 61.8086 27.9836 61.9753 29.6422C62.1419 31.3009 62.9155 32.838 64.1459 33.9554C65.3763 35.0728 66.9758 35.6906 68.6337 35.6889H71.3079C71.6626 35.6889 72.0027 35.8305 72.2534 36.0827C72.5042 36.3348 72.645 36.6768 72.645 37.0333C72.645 37.3899 72.5042 37.7319 72.2534 37.984C72.0027 38.2361 71.6626 38.3778 71.3079 38.3778H61.9481V43.7556H67.2966V46.4444H72.645V43.6211C74.2698 43.2894 75.7141 42.3624 76.6974 41.0203C77.6807 39.6781 78.133 38.0164 77.9664 36.3578C77.7997 34.6992 77.0261 33.162 75.7957 32.0446C74.5653 30.9272 72.9659 30.3094 71.3079 30.3111H68.6337C68.2791 30.3111 67.939 30.1695 67.6882 29.9173C67.4375 29.6652 67.2966 29.3232 67.2966 28.9667C67.2966 28.6101 67.4375 28.2681 67.6882 28.016C67.939 27.7639 68.2791 27.6222 68.6337 27.6222Z" fill="white"/>
<path d="M101.406 24.75H96.1646C96.09 22.5773 95.5956 20.4439 94.712 18.4819C93.8283 16.5198 92.5743 14.7708 91.0274 13.343V2.75C91.0274 2.23929 90.8932 1.73867 90.6399 1.30424C90.3866 0.869807 90.0241 0.518722 89.5932 0.290326C89.1622 0.0619307 88.6797 -0.0347512 88.1999 0.0111132C87.72 0.0569776 87.2616 0.243576 86.8761 0.550001L77.1907 8.25H65.082C50.7861 8.25 40.5299 17.1628 39.2716 30.25H39.1366C38.4485 30.25 37.7886 29.9603 37.302 29.4445C36.8155 28.9288 36.5421 28.2293 36.5421 27.5V22H31.353V27.5C31.3551 29.6874 32.1758 31.7845 33.6351 33.3312C35.0943 34.8779 37.0729 35.7478 39.1366 35.75H39.3183C39.6945 39.356 40.8002 42.8335 42.5599 45.9453C44.3196 49.0572 46.6918 51.7301 49.5148 53.7817V63.25C49.5148 63.9793 49.7881 64.6788 50.2747 65.1945C50.7613 65.7103 51.4212 66 52.1093 66H62.4875C63.1756 66 63.8355 65.7103 64.3221 65.1945C64.8087 64.6788 65.082 63.9793 65.082 63.25V57.75H72.8656V63.25C72.8656 63.9793 73.139 64.6788 73.6256 65.1945C74.1121 65.7103 74.7721 66 75.4602 66H85.8383C86.5264 66 87.1864 65.7103 87.6729 65.1945C88.1595 64.6788 88.4329 63.9793 88.4329 63.25V54.0017C90.307 53.06 91.9457 51.6639 93.2163 49.9263C94.487 48.1888 95.3539 46.1586 95.7469 44H101.406C102.094 44 102.754 43.7103 103.24 43.1945C103.727 42.6788 104 41.9793 104 41.25V27.5C104 26.7707 103.727 26.0712 103.24 25.5555C102.754 25.0397 102.094 24.75 101.406 24.75ZM98.811 38.5H91.3491C90.5578 46.0708 89.2112 48.0838 83.2438 50.3663V60.5H78.0547V52.25H59.8929V60.5H54.7039V50.5395C51.5798 48.9642 48.9442 46.4775 47.106 43.3709C45.2679 40.2644 44.3034 36.6668 44.3257 33C44.3257 19.7037 54.7506 13.75 65.082 13.75H78.9187L85.8383 8.25V15.884C92.1119 20.999 90.8017 24.6455 91.0741 30.25H98.811V38.5Z" fill="white"/>
<path d="M8.63679 60.5815C8.63679 63.5694 10.8967 66 13.6749 66C16.6027 66 18.3531 63.6391 18.3531 61.3556H15.4742C15.4742 61.998 14.9157 62.9037 13.6749 62.9037C12.4844 62.9037 11.5157 61.8618 11.5157 60.5815C11.5157 59.3012 12.4844 58.2593 13.6749 58.2593H24.4707V55.163H13.6749C10.8967 55.163 8.63679 57.5936 8.63679 60.5815ZM5.03818 45.8741H15.834L15.834 42.7778H5.03818C3.84776 42.7778 2.87901 41.7359 2.87901 40.4556C2.87901 39.1752 3.84776 38.1333 5.03818 38.1333C6.27898 38.1333 6.83748 39.039 6.83748 39.6815H9.71638C9.71638 37.398 7.96601 35.037 5.03818 35.037C2.26005 35.037 0.000114441 37.4676 0.000114441 40.4556C0.000114441 43.4435 2.26005 45.8741 5.03818 45.8741Z" fill="white"/>
<path d="M5.81153 57.8519C9.01672 57.8519 11.6233 55.1719 11.6233 51.8765H8.71742C8.71742 53.5242 7.41413 54.8642 5.81153 54.8642C4.20894 54.8642 2.90565 53.5242 2.90565 51.8765C2.90565 50.2289 4.20894 48.8889 5.81153 48.8889H29.0586V45.9012H5.81153C2.60635 45.9012 -0.000229836 48.5812 -0.000229836 51.8765C-0.000229836 55.1719 2.60635 57.8519 5.81153 57.8519ZM29.0586 42.9136H23.2468V39.9259H29.0586L29.0586 42.9136Z" fill="white"/>
</svg>
