<svg width="39" height="34" viewBox="0 0 39 34" fill="none" xmlns="http://www.w3.org/2000/svg">
<path fill-rule="evenodd" clip-rule="evenodd" d="M4.82287e-07 2.7944C4.82287e-07 2.05328 0.343282 1.34252 0.954326 0.818464C1.56537 0.294413 2.39413 3.72533e-06 3.25827 3.72533e-06H35.7382C36.1664 -0.00059613 36.5906 0.0712517 36.9864 0.211434C37.3823 0.351615 37.742 0.557378 38.0449 0.816942C38.3479 1.07651 38.5882 1.38477 38.7521 1.72409C38.916 2.06341 39.0002 2.42713 39 2.7944V30.6502C39.0005 31.0176 38.9165 31.3814 38.7528 31.7209C38.5892 32.0604 38.3491 32.3688 38.0463 32.6287C37.7435 32.8885 37.3839 33.0946 36.9882 33.2351C36.5925 33.3756 36.1683 33.4479 35.74 33.4477H3.25827C2.83024 33.4477 2.4064 33.3753 2.01098 33.2348C1.61555 33.0943 1.25628 32.8883 0.953699 32.6287C0.651118 32.369 0.411152 32.0608 0.247513 31.7216C0.0838735 31.3824 -0.000232397 31.0188 4.82287e-07 30.6517V2.7944ZM15.4369 12.7527H20.7179V15.0271C21.4801 13.7196 23.4301 12.5429 26.3605 12.5429C31.9782 12.5429 33.3095 15.1472 33.3095 19.9257V28.7772H27.6244V21.0143C27.6244 18.2928 26.8621 16.7573 24.9263 16.7573C22.2406 16.7573 21.1238 18.4129 21.1238 21.0143V28.7772H15.4369V12.7527ZM5.68691 28.5689H11.3738V12.5429H5.68691V28.5673V28.5689ZM12.1875 7.31592C12.1982 7.73352 12.1116 8.14875 11.9327 8.53724C11.7537 8.92573 11.4861 9.27965 11.1455 9.57825C10.805 9.87684 10.3983 10.1141 9.94935 10.276C9.50042 10.438 9.01829 10.5214 8.53125 10.5214C8.04421 10.5214 7.56208 10.438 7.11315 10.276C6.66422 10.1141 6.25753 9.87684 5.91695 9.57825C5.57638 9.27965 5.30877 8.92573 5.12985 8.53724C4.95092 8.14875 4.86428 7.73352 4.875 7.31592C4.89605 6.49623 5.2905 5.7162 5.97389 5.14286C6.65727 4.56953 7.57526 4.24849 8.53125 4.24849C9.48724 4.24849 10.4052 4.56953 11.0886 5.14286C11.772 5.7162 12.1665 6.49623 12.1875 7.31592Z" fill="url(#paint0_linear_21_418)"/>
<defs>
<linearGradient id="paint0_linear_21_418" x1="19.5" y1="0" x2="19.5" y2="33.4477" gradientUnits="userSpaceOnUse">
<stop stop-color="#1F8EBE"/>
<stop offset="0.348958" stop-color="#440495"/>
<stop offset="0.677083" stop-color="#440495"/>
<stop offset="1" stop-color="#B102CD"/>
</linearGradient>
</defs>
</svg>
