<svg width="70" height="70" viewBox="0 0 70 70" fill="none" xmlns="http://www.w3.org/2000/svg">
<path fill-rule="evenodd" clip-rule="evenodd" d="M15.1331 29.8536C11.6974 27.0765 6.54393 27.0765 3.10825 29.8536C1.39041 31.2421 0.531487 32.9778 0.531487 34.7135C0.531487 36.4491 1.39041 38.1848 3.10825 39.5734C6.54393 42.3504 11.6974 42.3504 15.1331 39.5734C18.5688 36.7963 18.5688 32.6307 15.1331 29.8536ZM34.8883 34.7135C34.8883 29.1593 32.3115 23.9523 27.158 20.1338C25.4402 18.7453 22.8634 18.7453 21.1456 20.1338C20.2867 20.8281 19.8572 21.8695 19.8572 22.5638C19.8572 23.4564 20.1727 24.094 20.8038 24.6951L21.1456 24.9937C27.5875 30.2007 27.5875 38.8791 21.1456 44.0861C19.4277 45.4746 19.4277 47.5574 21.1456 48.946C22.7313 50.2277 25.0488 50.3263 26.7471 49.2418L27.158 48.946C32.3115 45.4746 34.8883 40.2676 34.8883 34.7135ZM52.0667 34.7135C52.0667 25.688 47.7721 17.0096 39.6124 10.7612C37.8945 9.37264 35.3178 9.37264 33.5999 10.7612C32.741 11.4554 32.3115 12.1497 32.3115 13.1911C32.3115 14.0837 32.6271 14.7213 33.2581 15.3225L33.5999 15.6211C40.0418 20.8281 43.4775 27.4236 43.4775 34.7135C43.4775 42.0033 40.0418 48.5989 33.5999 53.8059C31.8821 55.1944 31.8821 57.2772 33.5999 58.6658C35.3178 60.0543 37.8945 60.0543 39.6124 58.6658C47.7721 52.4173 52.0667 43.739 52.0667 34.7135ZM69.2451 34.7135C69.2451 21.8695 62.8032 10.0669 51.6372 1.0414C49.9194 -0.347137 47.3426 -0.347137 45.6248 1.0414C44.7659 1.73567 44.3364 2.42995 44.3364 3.47134C44.3364 4.51275 44.7659 5.20702 45.6248 5.90129C55.5024 13.5383 60.6559 23.9523 60.6559 34.7135C60.6559 45.4746 55.5024 55.8887 45.6248 63.5256C43.907 64.9142 43.907 66.997 45.6248 68.3855C47.3426 69.7741 49.9194 69.7741 51.6372 68.3855C62.8032 59.36 69.2451 47.5574 69.2451 34.7135Z" fill="white"/>
</svg>
