<svg width="71" height="57" viewBox="0 0 71 57" fill="none" xmlns="http://www.w3.org/2000/svg">
<path d="M65.0746 56.7223H5.41524C2.42997 56.7223 0 54.2923 0 51.3071V5.41524C0 2.42997 2.42997 0 5.41524 0H65.0746C68.0622 0 70.4899 2.42997 70.4899 5.41524V51.3071C70.4899 54.2946 68.0622 56.7223 65.0746 56.7223ZM49.8385 55.0702H65.0746C67.1489 55.0702 68.8377 53.3837 68.8377 51.3071V42.9548H49.8385V55.0702ZM22.3034 55.0702H48.1864V14.5936C48.1864 14.137 48.5559 13.7675 49.0125 13.7675H68.8377V5.41524C68.8377 3.34092 67.1512 1.65211 65.0746 1.65211H22.3034V55.0702ZM1.65211 42.9548V51.3071C1.65211 53.3814 3.34093 55.0702 5.41524 55.0702H20.6513V42.9548H1.65211ZM49.8385 41.3026H68.8355V29.1872H49.8385V41.3026ZM1.65211 41.3026H20.6513V29.1872H1.65211V41.3026ZM49.8385 27.5351H68.8355V15.4197H49.8385V27.5351ZM1.65211 27.5351H20.6513V15.4197H1.65211V27.5351ZM1.65211 13.7675H20.6513V1.65211H5.41524C3.34093 1.65211 1.65211 3.34092 1.65211 5.41524V13.7675Z" fill="white"/>
</svg>
