<svg width="83" height="83" viewBox="0 0 83 83" fill="none" xmlns="http://www.w3.org/2000/svg">
<path d="M71.7949 13.695C70.1349 12.035 67.2299 12.035 65.1549 13.695L55.1949 23.655C50.8114 22.0278 46.1757 21.1849 41.4999 21.165C25.7299 21.58 11.6199 29.88 4.1499 43.575C4.9799 45.235 6.2249 46.895 7.4699 48.555C10.7899 53.12 14.9399 56.855 19.5049 59.76L12.4499 66.815C10.7899 68.475 10.3749 71.38 12.4499 73.455C14.1099 75.115 17.0149 75.53 19.0899 73.455L71.7949 20.335C73.4549 18.26 73.4549 15.355 71.7949 13.695V13.695ZM27.8049 51.045L22.4099 56.44C17.4299 53.535 12.8649 49.385 9.5449 44.405C14.5249 37.35 21.1649 32.37 29.0499 29.88C23.6549 35.69 23.2399 44.82 27.8049 51.045V51.045ZM41.9149 37.35C39.8399 35.275 40.2549 31.955 42.3299 29.88C44.4049 28.22 47.3099 28.22 49.3849 29.88L41.9149 37.35ZM75.9449 39.425C73.8699 36.52 71.3799 33.615 68.4749 31.54L64.3249 35.69C67.6449 38.18 70.5499 41.085 73.0399 44.82C65.9849 55.61 53.9499 62.25 41.0849 62.25H37.7649L33.6149 66.4C36.5199 65.985 39.0099 66.4 41.4999 66.4C55.1949 66.4 68.0599 59.76 75.9449 48.555C77.1899 46.895 78.0199 45.235 79.2649 43.575C78.0199 42.33 77.1899 40.67 75.9449 39.425V39.425ZM58.0999 41.5L41.4999 58.1C50.6299 58.1 58.0999 50.63 58.0999 41.5Z" fill="black"/>
</svg>
