<svg width="29" height="29" viewBox="0 0 29 29" fill="none" xmlns="http://www.w3.org/2000/svg">
<path d="M14.5 26.1666C17.7217 26.1666 20.6383 24.8607 22.7496 22.7495C24.8609 20.6382 26.1667 17.7216 26.1667 14.4999C26.1667 11.2783 24.8609 8.36162 22.7496 6.25034C20.6383 4.13909 17.7217 2.83325 14.5 2.83325C11.2784 2.83325 8.36174 4.13909 6.25046 6.25034C4.13921 8.36162 2.83337 11.2783 2.83337 14.4999C2.83337 17.7216 4.13921 20.6382 6.25046 22.7495C8.36174 24.8607 11.2784 26.1666 14.5 26.1666Z" fill="#F5F5F5" stroke="#E3E74B" stroke-width="2" stroke-linejoin="round"/>
<path d="M11.0003 12.0561C10.9985 12.0993 11.0053 12.1424 11.0202 12.1828C11.0351 12.2231 11.0578 12.2599 11.087 12.2908C11.1161 12.3218 11.151 12.3462 11.1896 12.3626C11.2282 12.3791 11.2696 12.3871 11.3113 12.3864H12.3762C12.5543 12.3864 12.6963 12.2353 12.7196 12.0521C12.8357 11.1751 13.4166 10.5361 14.4517 10.5361C15.3372 10.5361 16.1478 10.9947 16.1478 12.0976C16.1478 12.9465 15.665 13.3369 14.9022 13.9305C14.0335 14.5842 13.3456 15.3476 13.3946 16.5869L13.3985 16.877C13.3998 16.9647 13.4344 17.0484 13.4948 17.1099C13.5552 17.1714 13.6365 17.2059 13.7212 17.2059H14.768C14.8535 17.2059 14.9356 17.1707 14.9961 17.108C15.0567 17.0453 15.0907 16.9603 15.0907 16.8717V16.7313C15.0907 15.7714 15.443 15.492 16.3943 14.7447C17.1804 14.1257 18 13.4385 18 11.996C18 9.97594 16.353 9 14.5498 9C12.9145 9 11.1229 9.78877 11.0003 12.0561ZM13.01 19.7607C13.01 20.4733 13.5585 21 14.3136 21C15.0997 21 15.6405 20.4733 15.6405 19.7607C15.6405 19.0227 15.0984 18.504 14.3123 18.504C13.5585 18.504 13.01 19.0227 13.01 19.7607Z" fill="#E3E74B"/>
</svg>
