<svg width="24" height="23" viewBox="0 0 24 23" fill="none" xmlns="http://www.w3.org/2000/svg">
<path d="M13.0613 0.595063C12.6461 -0.198354 11.355 -0.198354 10.9398 0.595063L0.140315 21.2191C0.0431003 21.4039 -0.00509462 21.6111 0.000426207 21.8203C0.00594704 22.0296 0.0649953 22.2339 0.171818 22.4132C0.27864 22.5926 0.429593 22.7409 0.609969 22.8437C0.790344 22.9466 0.993989 23.0004 1.20106 23H22.8C23.0069 23.0004 23.2104 22.9466 23.3907 22.8439C23.5709 22.7411 23.7218 22.5929 23.8285 22.4136C23.9352 22.2344 23.9941 22.0302 23.9996 21.8211C24.005 21.6119 23.9568 21.4049 23.8595 21.2203L13.0613 0.595063ZM13.2005 19.3605H10.8006V16.9341H13.2005V19.3605ZM10.8006 14.5078V8.44188H13.2005L13.2017 14.5078H10.8006Z" fill="#C71D1D"/>
</svg>
