<svg width="45" height="42" viewBox="0 0 45 42" fill="none" xmlns="http://www.w3.org/2000/svg">
<g clip-path="url(#clip0_302_1336)">
<path fill-rule="evenodd" clip-rule="evenodd" d="M0 11.1562C0 10.6341 0.222237 10.1333 0.617822 9.76413C1.01341 9.39492 1.54993 9.1875 2.10938 9.1875H23.2031C23.7626 9.1875 24.2991 9.39492 24.6947 9.76413C25.0903 10.1333 25.3125 10.6341 25.3125 11.1562C25.3125 11.6784 25.0903 12.1792 24.6947 12.5484C24.2991 12.9176 23.7626 13.125 23.2031 13.125H2.10938C1.54993 13.125 1.01341 12.9176 0.617822 12.5484C0.222237 12.1792 0 11.6784 0 11.1562H0ZM0 21.6562C0 21.1341 0.222237 20.6333 0.617822 20.2641C1.01341 19.8949 1.54993 19.6875 2.10938 19.6875H14.7656C15.3251 19.6875 15.8616 19.8949 16.2572 20.2641C16.6528 20.6333 16.875 21.1341 16.875 21.6562C16.875 22.1784 16.6528 22.6792 16.2572 23.0484C15.8616 23.4176 15.3251 23.625 14.7656 23.625H2.10938C1.54993 23.625 1.01341 23.4176 0.617822 23.0484C0.222237 22.6792 0 22.1784 0 21.6562H0ZM0 32.1562C0 31.6341 0.222237 31.1333 0.617822 30.7641C1.01341 30.3949 1.54993 30.1875 2.10938 30.1875H9.14062C9.70007 30.1875 10.2366 30.3949 10.6322 30.7641C11.0278 31.1333 11.25 31.6341 11.25 32.1562C11.25 32.6784 11.0278 33.1792 10.6322 33.5484C10.2366 33.9176 9.70007 34.125 9.14062 34.125H2.10938C1.54993 34.125 1.01341 33.9176 0.617822 33.5484C0.222237 33.1792 0 32.6784 0 32.1562H0Z" fill="black"/>
<path d="M37.9688 26.25H44.2969C44.4362 26.2498 44.5723 26.2881 44.6882 26.3602C44.8041 26.4323 44.8944 26.5349 44.9477 26.655C45.001 26.775 45.0149 26.9071 44.9877 27.0346C44.9605 27.1621 44.8933 27.2791 44.7947 27.3709L36.3572 35.2459C36.2919 35.307 36.2143 35.3555 36.1289 35.3886C36.0435 35.4216 35.9519 35.4387 35.8594 35.4387C35.7669 35.4387 35.6754 35.4216 35.5899 35.3886C35.5045 35.3555 35.4269 35.307 35.3616 35.2459L26.9241 27.3709C26.8255 27.2791 26.7583 27.1621 26.7311 27.0346C26.7039 26.9071 26.7178 26.775 26.7711 26.655C26.8244 26.5349 26.9148 26.4323 27.0306 26.3602C27.1465 26.2881 27.2827 26.2498 27.4219 26.25H33.75V9.84375C33.75 9.32161 33.9723 8.82085 34.3679 8.45163C34.7634 8.08242 35.3 7.875 35.8594 7.875C36.4189 7.875 36.9554 8.08242 37.351 8.45163C37.7465 8.82085 37.9688 9.32161 37.9688 9.84375V26.25Z" fill="black"/>
</g>
<defs>
<clipPath id="clip0_302_1336">
<rect width="45" height="42" fill="white"/>
</clipPath>
</defs>
</svg>
