<svg width="53" height="53" viewBox="0 0 53 53" fill="none" xmlns="http://www.w3.org/2000/svg">
<path d="M6.71086 16.4048H46.6905M11.3572 6.30952H41.6429C42.9816 6.30952 44.2655 6.84133 45.2121 7.78794C46.1587 8.73455 46.6905 10.0184 46.6905 11.3571V41.6176C46.6905 42.9563 46.1587 44.2402 45.2121 45.1868C44.2655 46.1334 42.9816 46.6652 41.6429 46.6652H11.3572C10.0185 46.6652 8.7346 46.1334 7.78798 45.1868C6.84137 44.2402 6.30957 42.9563 6.30957 41.6176V11.3571C6.30957 10.0184 6.84137 8.73455 7.78798 7.78794C8.7346 6.84133 10.0185 6.30952 11.3572 6.30952V6.30952Z" stroke="black" stroke-linecap="round" stroke-linejoin="round"/>
<path fill-rule="evenodd" clip-rule="evenodd" d="M17.2024 33.2007V30.4775H19.4233C21.1092 30.4775 22.255 29.4806 22.255 28.0244C22.255 26.6943 21.2077 25.6848 19.4713 25.6848C17.6718 25.6848 16.5639 26.6085 16.4402 28.1985H12.9977C13.1264 24.9201 15.6502 22.7143 19.6555 22.7143C23.6002 22.7143 25.7934 24.8949 25.7808 27.4969C25.7682 29.6522 24.4129 31.0706 22.5024 31.5375V31.7722C24.9782 32.1281 26.4824 33.7055 26.4824 36.0854C26.4824 39.2023 23.5498 41.4107 19.5319 41.4107C15.5139 41.4107 12.7781 39.2124 12.6191 35.8482H16.1802C16.2913 37.3524 17.5734 38.314 19.4839 38.314C21.3692 38.314 22.6891 37.2893 22.6891 35.7498C22.6891 34.1724 21.455 33.2007 19.4587 33.2007H17.2024ZM34.1119 40.9539V26.7928H33.8923L29.5287 29.8011V26.3385L34.1245 23.1711H37.8345V40.9539H34.1119Z" fill="black"/>
</svg>
