<svg width="113" height="84" viewBox="0 0 113 84" fill="none" xmlns="http://www.w3.org/2000/svg">
<path d="M48.4373 18.0908C48.4373 18.0908 58.7844 15.6016 61.1873 20.6108C63.5902 25.62 50.1019 35.3304 42.6602 23.9064L48.4373 18.0908Z" fill="#F4A28C"/>
<path opacity="0.1" d="M48.4373 18.0908C48.4373 18.0908 58.7844 15.6016 61.1873 20.6108C63.5902 25.62 50.1019 35.3304 42.6602 23.9064L48.4373 18.0908Z" fill="black"/>
<path d="M65.6978 15.2455L71.8458 28.0734L48.9913 38.9711L42.8433 26.1432L65.6978 15.2455Z" fill="#E6E6E6"/>
<path d="M64.3389 17.1731L69.4868 27.9145L52.389 36.0672L47.2411 25.3259L64.3389 17.1731Z" fill="white"/>
<path d="M53.4937 26.0362L55.9296 31.1188L53.8402 32.1151L51.4042 27.0325L53.4937 26.0362Z" fill="#24285B"/>
<path d="M61.7822 28.8876C63.9387 28.8876 65.6869 27.1438 65.6869 24.9928C65.6869 22.8418 63.9387 21.098 61.7822 21.098C59.6257 21.098 57.8774 22.8418 57.8774 24.9928C57.8774 27.1438 59.6257 28.8876 61.7822 28.8876Z" fill="#FFD200"/>
<path d="M53.8073 20.3532C53.8073 20.3532 59.6293 22.33 60.0729 24.1668C60.4434 25.6844 57.6924 26.9976 53.9645 25.0852C53.212 24.6948 52.3842 24.4703 51.5371 24.4268C50.6901 24.3834 49.8435 24.5219 49.0548 24.8332C47.7327 25.3568 46.0091 25.6732 44.2378 24.9144C40.5127 23.3436 41.6496 20.3168 45.0406 19.0344C48.4316 17.752 49.4899 17.444 53.8073 20.3532Z" fill="#F4A28C"/>
<path d="M45.4843 26.1716L24.6104 34.3392L21.1885 21.3164L44.1874 17.7156L45.4843 26.1716Z" fill="white"/>
<path opacity="0.1" d="M23.2739 29.2544L44.8637 22.134L45.484 26.1716L24.6101 34.3392L23.2739 29.2544Z" fill="black"/>
<path d="M66.5264 19.7092C66.7667 19.7092 66.9615 19.5149 66.9615 19.2752C66.9615 19.0355 66.7667 18.8412 66.5264 18.8412C66.2861 18.8412 66.0913 19.0355 66.0913 19.2752C66.0913 19.5149 66.2861 19.7092 66.5264 19.7092Z" fill="#A8A8A8"/>
<path d="M69.1052 24.3167L67.2952 20.5401C67.2484 20.4424 67.1311 20.4011 67.0332 20.4478L67.0306 20.449C66.9327 20.4957 66.8913 20.6127 66.9381 20.7103L68.7481 24.487C68.7949 24.5847 68.9122 24.626 69.0102 24.5793L69.0127 24.5781C69.1106 24.5314 69.152 24.4144 69.1052 24.3167Z" fill="#A8A8A8"/>
<path d="M47.8086 32.6676C48.5745 32.6676 49.1953 32.0483 49.1953 31.2844C49.1953 30.5205 48.5745 29.9012 47.8086 29.9012C47.0427 29.9012 46.4219 30.5205 46.4219 31.2844C46.4219 32.0483 47.0427 32.6676 47.8086 32.6676Z" fill="#A8A8A8"/>
<path d="M62.2568 51.2064C62.2568 51.2064 51.8227 49.1036 49.6078 54.2024C47.393 59.3012 61.2378 68.4992 68.2557 56.8064L62.2568 51.2064Z" fill="#F4A28C"/>
<path opacity="0.1" d="M62.2568 51.2064C62.2568 51.2064 51.8227 49.1036 49.6078 54.2024C47.393 59.3012 61.2378 68.4992 68.2557 56.8064L62.2568 51.2064Z" fill="black"/>
<path d="M68.1431 59.0437L62.4773 72.0907L39.2326 62.0478L44.8983 49.0007L68.1431 59.0437Z" fill="#E6E6E6"/>
<path d="M31.2097 45.4968L46.3123 38.2995L46.7753 39.2661L31.6727 46.4634L31.2097 45.4968ZM42.5553 43.239C43.0086 42.9651 43.2814 42.5865 43.3736 42.1034C43.4658 41.6202 43.3652 41.0722 43.0715 40.4592C42.872 40.0427 42.6446 39.7192 42.3892 39.4886C42.1378 39.2561 41.8731 39.112 41.5952 39.0562C41.3191 39.0043 41.0513 39.0403 40.7918 39.164C40.5717 39.2592 40.4045 39.3944 40.2903 39.5694C40.178 39.7484 40.1052 39.9545 40.0719 40.1875C40.0426 40.4187 40.0401 40.6708 40.0647 40.9439C40.0931 41.215 40.1409 41.4963 40.208 41.7877L40.4679 42.9959C40.6021 43.5786 40.6763 44.1369 40.6904 44.6707C40.7046 45.2045 40.6452 45.7009 40.5125 46.1599C40.3797 46.6189 40.161 47.0296 39.8563 47.392C39.5535 47.7583 39.1514 48.0634 38.6498 48.3072C37.9085 48.6556 37.1771 48.7725 36.4556 48.6579C35.7398 48.5454 35.065 48.2106 34.4311 47.6536C33.803 47.0987 33.2537 46.3301 32.7832 45.3478C32.3164 44.3734 32.0593 43.4534 32.0119 42.588C31.9664 41.7265 32.1397 40.9538 32.5319 40.2698C32.9298 39.5878 33.5587 39.0299 34.4185 38.5961L35.6014 41.0656C35.2095 41.2862 34.9268 41.5633 34.7533 41.8969C34.5856 42.2326 34.5157 42.6062 34.5437 43.0175C34.5775 43.431 34.6997 43.8577 34.9105 44.2978C35.1176 44.73 35.3602 45.0753 35.6385 45.3335C35.9187 45.5958 36.2133 45.7619 36.5221 45.8318C36.831 45.9018 37.131 45.8675 37.422 45.7288C37.6934 45.5994 37.8829 45.4102 37.9906 45.161C38.1002 44.9157 38.1464 44.6089 38.1294 44.2406C38.1143 43.8762 38.0544 43.4487 37.9498 42.958L37.6506 41.4862C37.4109 40.3504 37.4134 39.3623 37.6581 38.5218C37.9029 37.6812 38.4725 37.0502 39.3672 36.6286C40.0969 36.2761 40.8291 36.166 41.564 36.2984C42.3008 36.4347 42.9882 36.7756 43.6262 37.3209C44.2642 37.8663 44.794 38.579 45.2156 39.4592C45.6447 40.355 45.8659 41.2101 45.8791 42.0242C45.8941 42.8423 45.7177 43.5683 45.3498 44.2021C44.982 44.8359 44.441 45.3302 43.7269 45.685L42.5553 43.239Z" fill="white"/>
<path d="M63.7148 58.3916L58.9707 69.3164L41.5809 61.8031L46.3251 50.8784L63.7148 58.3916Z" fill="white"/>
<path d="M60.3057 60.3563L58.0809 65.4795L55.4148 64.3277L57.6396 59.2044L60.3057 60.3563Z" fill="#24285B"/>
<path d="M50.1132 62.8992C52.2698 62.8992 54.018 61.1554 54.018 59.0044C54.018 56.8534 52.2698 55.1096 50.1132 55.1096C47.9567 55.1096 46.2085 56.8534 46.2085 59.0044C46.2085 61.1554 47.9567 62.8992 50.1132 62.8992Z" fill="#FFD200"/>
<path d="M66.0889 63.7095L51.5439 55.3569L52.081 54.4263L66.6261 62.7789L66.0889 63.7095ZM57.7696 55.6455C57.2851 55.4277 56.8166 55.4181 56.3641 55.6166C55.9116 55.8151 55.5151 56.2094 55.1744 56.7996C54.943 57.2006 54.8044 57.5718 54.7586 57.9132C54.7091 58.2524 54.7402 58.5524 54.852 58.813C54.966 59.0699 55.148 59.2701 55.398 59.4137C55.6019 59.5409 55.8089 59.6018 56.0188 59.5964C56.2308 59.5872 56.4428 59.5301 56.6547 59.4251C56.8628 59.318 57.0729 59.1767 57.2851 59.0014C57.4935 58.8239 57.6992 58.6247 57.9023 58.4039L58.7549 57.5033C59.1612 57.0617 59.5812 56.6834 60.0152 56.3684C60.4491 56.0535 60.8939 55.8203 61.3494 55.6689C61.805 55.5175 62.2694 55.4643 62.7426 55.5094C63.2181 55.5508 63.6993 55.7087 64.1863 55.9834C64.8962 56.3961 65.4088 56.9322 65.7241 57.5918C66.0378 58.2454 66.1442 58.9915 66.0434 59.8302C65.941 60.6629 65.6169 61.5521 65.071 62.4979C64.5295 63.4361 63.9139 64.1705 63.2243 64.7013C62.5369 65.2283 61.7985 65.5245 61.0092 65.5901C60.2183 65.6497 59.3989 65.4486 58.5509 64.9868L59.9232 62.6092C60.3286 62.8067 60.7188 62.8822 61.0937 62.8356C61.467 62.783 61.816 62.6283 62.1407 62.3715C62.4638 62.1088 62.7476 61.7656 62.9922 61.3419C63.2324 60.9258 63.3803 60.5297 63.436 60.1537C63.4938 59.7738 63.4639 59.4368 63.3462 59.1426C63.2286 58.8484 63.0296 58.6208 62.7493 58.4598C62.488 58.3098 62.2235 58.2612 61.956 58.314C61.6906 58.3631 61.4103 58.4993 61.115 58.7226C60.8218 58.9421 60.5019 59.2343 60.155 59.5993L59.1065 60.682C58.3023 61.5247 57.4827 62.0841 56.6476 62.3601C55.8125 62.6361 54.9662 62.5253 54.1085 62.0277C53.4018 61.6269 52.8944 61.0862 52.5863 60.4056C52.2803 59.7211 52.1717 58.9612 52.2606 58.1257C52.3494 57.2903 52.6384 56.4488 53.1275 55.6015C53.6253 54.7389 54.2076 54.071 54.8742 53.5975C55.543 53.1203 56.2444 52.8532 56.9784 52.7961C57.7123 52.7391 58.4291 52.9039 59.1288 53.2906L57.7696 55.6455Z" fill="white"/>
<path d="M56.9849 53.6676C56.9849 53.6676 51.2443 55.8572 50.8653 57.7108C50.5285 59.2424 53.3356 60.452 56.9849 58.4024C57.7228 57.9823 58.5425 57.7254 59.3887 57.6491C60.2348 57.5727 61.0875 57.6788 61.889 57.96C63.228 58.436 64.9628 58.6768 66.706 57.8648C70.3694 56.1568 69.1202 53.172 65.6814 52.0072C62.2427 50.8424 61.1956 50.5988 56.9849 53.6676Z" fill="#F4A28C"/>
<path d="M65.5103 59.1724L86.6733 66.5588L89.6068 53.4184L66.4899 50.6744L65.5103 59.1724Z" fill="#E8EAF6"/>
<path opacity="0.1" d="M87.8186 61.4292L65.979 55.1152L65.5103 59.1724L86.6733 66.5588L87.8186 61.4292Z" fill="black"/>
<path d="M63.377 65.7496C64.1428 65.7496 64.7637 65.1303 64.7637 64.3664C64.7637 63.6025 64.1428 62.9832 63.377 62.9832C62.6111 62.9832 61.9902 63.6025 61.9902 64.3664C61.9902 65.1303 62.6111 65.7496 63.377 65.7496Z" fill="#A8A8A8"/>
<path d="M66.5576 32.9672C66.5576 32.9672 72.1718 39.0656 64.9603 42.4872C58.6077 45.5 52.7211 40.698 53.0833 50.0024" stroke="#A8A8A8" stroke-width="2" stroke-linecap="round" stroke-linejoin="round" stroke-dasharray="1 10"/>
</svg>
