<svg width="50" height="51" viewBox="0 0 50 51" fill="none" xmlns="http://www.w3.org/2000/svg">
<path d="M45.1086 26.6534C44.7078 26.1972 44.4868 25.6107 44.4868 25.0034C44.4868 24.3961 44.7078 23.8096 45.1086 23.3534L48.3086 19.7534C48.6612 19.3601 48.8802 18.8652 48.9341 18.3397C48.988 17.8142 48.8741 17.2851 48.6086 16.8284L43.6086 8.1784C43.3459 7.7222 42.9458 7.36059 42.4655 7.14512C41.9852 6.92964 41.4491 6.87129 40.9336 6.9784L36.2336 7.9284C35.6356 8.05197 35.013 7.95237 34.4833 7.6484C33.9537 7.34443 33.5536 6.85711 33.3586 6.2784L31.8336 1.7034C31.6659 1.20685 31.3464 0.775562 30.9202 0.470505C30.494 0.165447 29.9827 0.00204699 29.4586 0.0033999H19.4586C18.9135 -0.0250552 18.374 0.125716 17.9225 0.432685C17.4711 0.739654 17.1326 1.18595 16.9586 1.7034L15.5586 6.2784C15.3636 6.85711 14.9636 7.34443 14.4339 7.6484C13.9043 7.95237 13.2817 8.05197 12.6836 7.9284L7.85863 6.9784C7.37 6.90935 6.87188 6.98646 6.427 7.2C5.98211 7.41354 5.61038 7.75397 5.35863 8.1784L0.358627 16.8284C0.0865276 17.28 -0.0358173 17.8061 0.00908386 18.3315C0.0539851 18.8568 0.263833 19.3545 0.608627 19.7534L3.78363 23.3534C4.18442 23.8096 4.40546 24.3961 4.40546 25.0034C4.40546 25.6107 4.18442 26.1972 3.78363 26.6534L0.608627 30.2534C0.263833 30.6523 0.0539851 31.15 0.00908386 31.6753C-0.0358173 32.2007 0.0865276 32.7268 0.358627 33.1784L5.35863 41.8284C5.62137 42.2846 6.02142 42.6462 6.50176 42.8617C6.98209 43.0772 7.51819 43.1355 8.03363 43.0284L12.7336 42.0784C13.3317 41.9548 13.9543 42.0544 14.4839 42.3584C15.0136 42.6624 15.4136 43.1497 15.6086 43.7284L17.1336 48.3034C17.3076 48.8209 17.6461 49.2671 18.0975 49.5741C18.549 49.8811 19.0885 50.0319 19.6336 50.0034H29.6336C30.1577 50.0048 30.669 49.8414 31.0952 49.5363C31.5214 49.2312 31.8409 48.7999 32.0086 48.3034L33.5336 43.7284C33.7286 43.1497 34.1287 42.6624 34.6583 42.3584C35.188 42.0544 35.8106 41.9548 36.4086 42.0784L41.1086 43.0284C41.6241 43.1355 42.1602 43.0772 42.6405 42.8617C43.1208 42.6462 43.5209 42.2846 43.7836 41.8284L48.7836 33.1784C49.0491 32.7217 49.163 32.1926 49.1091 31.6671C49.0552 31.1416 48.8362 30.6467 48.4836 30.2534L45.1086 26.6534ZM41.3836 30.0034L43.3836 32.2534L40.1836 37.8034L37.2336 37.2034C35.4331 36.8353 33.5601 37.1412 31.9701 38.0629C30.3802 38.9846 29.184 40.458 28.6086 42.2034L27.6586 45.0034H21.2586L20.3586 42.1534C19.7833 40.408 18.5871 38.9346 16.9971 38.0129C15.4072 37.0912 13.5342 36.7853 11.7336 37.1534L8.78363 37.7534L5.53363 32.2284L7.53363 29.9784C8.76351 28.6033 9.44346 26.8232 9.44346 24.9784C9.44346 23.1336 8.76351 21.3535 7.53363 19.9784L5.53363 17.7284L8.73363 12.2284L11.6836 12.8284C13.4842 13.1965 15.3572 12.8906 16.9471 11.9689C18.5371 11.0472 19.7333 9.5738 20.3086 7.8284L21.2586 5.0034H27.6586L28.6086 7.8534C29.184 9.5988 30.3802 11.0722 31.9701 11.9939C33.5601 12.9156 35.4331 13.2215 37.2336 12.8534L40.1836 12.2534L43.3836 17.8034L41.3836 20.0534C40.1675 21.4253 39.4961 23.1951 39.4961 25.0284C39.4961 26.8617 40.1675 28.6315 41.3836 30.0034ZM24.4586 15.0034C22.4808 15.0034 20.5474 15.5899 18.9029 16.6887C17.2584 17.7875 15.9767 19.3493 15.2198 21.1766C14.463 23.0038 14.2649 25.0145 14.6508 26.9543C15.0366 28.8941 15.989 30.6759 17.3876 32.0745C18.7861 33.473 20.5679 34.4254 22.5077 34.8113C24.4475 35.1971 26.4582 34.9991 28.2855 34.2422C30.1127 33.4853 31.6745 32.2036 32.7733 30.5591C33.8721 28.9146 34.4586 26.9812 34.4586 25.0034C34.4586 22.3512 33.4051 19.8077 31.5297 17.9323C29.6543 16.057 27.1108 15.0034 24.4586 15.0034ZM24.4586 30.0034C23.4697 30.0034 22.503 29.7102 21.6808 29.1607C20.8585 28.6113 20.2177 27.8304 19.8392 26.9168C19.4608 26.0032 19.3618 24.9979 19.5547 24.0279C19.7476 23.058 20.2238 22.1671 20.9231 21.4679C21.6224 20.7686 22.5133 20.2924 23.4832 20.0995C24.4531 19.9065 25.4584 20.0056 26.372 20.384C27.2857 20.7624 28.0666 21.4033 28.616 22.2255C29.1654 23.0478 29.4586 24.0145 29.4586 25.0034C29.4586 26.3295 28.9318 27.6013 27.9942 28.5389C27.0565 29.4766 25.7847 30.0034 24.4586 30.0034Z" fill="#E8EAF6"/>
</svg>
