<svg width="122" height="122" viewBox="0 0 122 122" fill="none" xmlns="http://www.w3.org/2000/svg">
<path d="M121.727 5.22645C122.004 4.53398 122.072 3.7754 121.922 3.04474C121.772 2.31408 121.411 1.64347 120.883 1.11605C120.356 0.588639 119.685 0.227611 118.954 0.0777281C118.223 -0.0721552 117.464 -0.0043027 116.771 0.272874L5.85389 44.6188H5.84626L2.39988 45.9905C1.74713 46.2508 1.17905 46.6863 0.758397 47.249C0.337742 47.8117 0.0808814 48.4796 0.016189 49.179C-0.0485034 49.8785 0.0814902 50.5822 0.39181 51.2124C0.702131 51.8426 1.1807 52.3748 1.77466 52.7503L4.9008 54.7317L4.90842 54.7469L42.994 78.9661L55.1173 98.0031C61.0036 106.691 61.0036 99.07 61.0036 95.2596C61.0027 90.4172 62.0278 85.6295 64.0115 81.2116C65.9952 76.7937 68.8925 72.8458 72.5127 69.6277C76.133 66.4095 80.394 63.9942 85.0154 62.5406C89.6369 61.0871 94.5139 60.6282 99.3255 61.1942L121.727 5.22645ZM107.751 19.6299L50.6111 76.7408L48.9718 74.165C48.6714 73.6923 48.2705 73.2916 47.7976 72.9913L45.2204 71.3528L102.36 14.242L111.342 10.6525L107.758 19.6299H107.751Z" fill="url(#paint0_linear_471_1023)"/>
<path d="M122 95.5C122 102.528 119.208 109.269 114.238 114.238C109.269 119.208 102.528 122 95.5 122C88.4718 122 81.7314 119.208 76.7617 114.238C71.792 109.269 69 102.528 69 95.5C69 88.4718 71.792 81.7314 76.7617 76.7617C81.7314 71.792 88.4718 69 95.5 69C102.528 69 109.269 71.792 114.238 76.7617C119.208 81.7314 122 88.4718 122 95.5V95.5ZM106.91 82.7876C106.484 82.5319 106.011 82.3629 105.519 82.29C105.027 82.2171 104.526 82.2418 104.043 82.3627C103.561 82.4837 103.107 82.6984 102.708 82.9948C102.309 83.2911 101.972 83.6632 101.716 84.0899L92.8576 98.8541L88.716 94.7126C88.0051 94.0017 87.041 93.6024 86.0357 93.6024C85.0304 93.6024 84.0663 94.0017 83.3554 94.7126C82.6446 95.4234 82.2452 96.3876 82.2452 97.3929C82.2452 98.3982 82.6446 99.3623 83.3554 100.073L89.2157 105.926C89.8257 106.537 90.567 107.001 91.3833 107.283C92.1995 107.564 93.0693 107.656 93.9263 107.551C94.7834 107.446 95.6051 107.146 96.3292 106.676C97.0532 106.205 97.6604 105.576 98.1046 104.836L108.212 87.9816C108.468 87.555 108.637 87.0823 108.71 86.5904C108.783 86.0986 108.758 85.5971 108.637 85.1148C108.516 84.6325 108.302 84.1787 108.005 83.7794C107.709 83.3801 107.337 83.043 106.91 82.7876V82.7876Z" fill="url(#paint1_linear_471_1023)"/>
<defs>
<linearGradient id="paint0_linear_471_1023" x1="61" y1="0" x2="61" y2="102" gradientUnits="userSpaceOnUse">
<stop stop-color="white"/>
<stop offset="0.0001" stop-color="#1F8EBE"/>
<stop offset="0.3409" stop-color="#440495"/>
<stop offset="0.695088" stop-color="#440495"/>
<stop offset="1" stop-color="#B102CD"/>
</linearGradient>
<linearGradient id="paint1_linear_471_1023" x1="95.5" y1="69" x2="95.5" y2="122" gradientUnits="userSpaceOnUse">
<stop stop-color="#1F8EBE"/>
<stop offset="0.325274" stop-color="#440495"/>
<stop offset="0.710613" stop-color="#440495"/>
<stop offset="1" stop-color="#B102CD"/>
</linearGradient>
</defs>
</svg>
