<svg width="76" height="76" viewBox="0 0 76 76" fill="none" xmlns="http://www.w3.org/2000/svg">
<path d="M12.2551 72.4004H23.4822V61.1879H12.2551V72.4004ZM2.86831 51.8035V61.1879H12.2527V51.8035H2.86831ZM73.8922 25.949C70.3871 14.6463 61.3391 5.64217 50.0339 2.09317C24.1209 -5.99689 0.216309 13.274 0.216309 37.9854H14.8121C14.8121 22.478 30.1976 10.4879 46.5142 16.3989C49.5141 17.4886 52.239 19.2222 54.4974 21.4776C56.7557 23.733 58.4928 26.4556 59.5865 29.4541C65.5437 45.7561 53.5391 61.1123 38.0463 61.1416V61.1879H38V75.7837C62.7723 75.7837 81.9969 51.8962 73.8922 25.9514V25.949ZM38.0463 61.1416V46.6238H23.4822V61.1879H38V61.1416H38.0463Z" fill="white"/>
</svg>
