<svg width="136" height="81" viewBox="0 0 136 81" fill="none" xmlns="http://www.w3.org/2000/svg">
<path d="M89.7515 33.9H101.991V27.3H94.9971V24H88.0029V27.465C85.8782 27.8721 83.9896 29.0097 82.7037 30.657C81.4178 32.3042 80.8264 34.3436 81.0443 36.3791C81.2622 38.4147 82.2738 40.3012 83.8828 41.6725C85.4918 43.0438 87.5834 43.8021 89.7515 43.8H93.2485C93.7123 43.8 94.157 43.9738 94.4849 44.2833C94.8128 44.5927 94.9971 45.0124 94.9971 45.45C94.9971 45.8876 94.8128 46.3073 94.4849 46.6167C94.157 46.9262 93.7123 47.1 93.2485 47.1H81.0088V53.7H88.0029V57H94.9971V53.535C97.1218 53.1279 99.0104 51.9903 100.296 50.343C101.582 48.6958 102.174 46.6564 101.956 44.6209C101.738 42.5853 100.726 40.6988 99.1172 39.3275C97.5082 37.9562 95.4166 37.1979 93.2485 37.2H89.7515C89.2877 37.2 88.843 37.0262 88.5151 36.7167C88.1872 36.4073 88.0029 35.9876 88.0029 35.55C88.0029 35.1124 88.1872 34.6927 88.5151 34.3833C88.843 34.0738 89.2877 33.9 89.7515 33.9Z" fill="url(#paint0_linear_32_455)"/>
<path d="M132.607 30.375H125.754C125.656 27.7085 125.01 25.0903 123.854 22.6823C122.698 20.2743 121.059 18.1278 119.036 16.3755V3.375C119.036 2.74822 118.86 2.13383 118.529 1.60066C118.198 1.06749 117.724 0.636613 117.16 0.356309C116.597 0.0760058 115.966 -0.0426492 115.338 0.0136389C114.711 0.0699271 114.111 0.298934 113.607 0.675001L100.942 10.125H85.1071C66.4125 10.125 53.0005 21.0634 51.355 37.125H51.1786C50.2787 37.125 49.4157 36.7694 48.7795 36.1365C48.1432 35.5035 47.7857 34.6451 47.7857 33.75V27H41V33.75C41.0027 36.4345 42.0759 39.0083 43.9842 40.9065C45.8925 42.8047 48.4799 43.8723 51.1786 43.875H51.4161C51.9081 48.3005 53.354 52.5684 55.6551 56.3875C57.9562 60.2065 61.0584 63.4869 64.75 66.0049V77.625C64.75 78.5201 65.1075 79.3786 65.7437 80.0115C66.38 80.6444 67.243 81 68.1429 81H81.7143C82.6141 81 83.4771 80.6444 84.1134 80.0115C84.7497 79.3786 85.1071 78.5201 85.1071 77.625V70.875H95.2857V77.625C95.2857 78.5201 95.6432 79.3786 96.2795 80.0115C96.9157 80.6444 97.7787 81 98.6786 81H112.25C113.15 81 114.013 80.6444 114.649 80.0115C115.285 79.3786 115.643 78.5201 115.643 77.625V66.2749C118.094 65.1191 120.237 63.4057 121.898 61.2732C123.56 59.1407 124.693 56.6491 125.207 54H132.607C133.507 54 134.37 53.6444 135.006 53.0115C135.643 52.3786 136 51.5201 136 50.625V33.75C136 32.8549 135.643 31.9965 135.006 31.3635C134.37 30.7306 133.507 30.375 132.607 30.375ZM129.214 47.25H119.456C118.422 56.5414 116.661 59.0119 108.857 61.8131V74.25H102.071V64.125H78.3214V74.25H71.5357V62.0257C67.4504 60.0924 64.0038 57.0405 61.6001 53.228C59.1964 49.4154 57.9352 45.0002 57.9643 40.5C57.9643 24.1819 71.5968 16.875 85.1071 16.875H103.201L112.25 10.125V19.494C120.454 25.7715 118.741 30.2467 119.097 37.125H129.214V47.25Z" fill="url(#paint1_linear_32_455)"/>
<path d="M11.2941 74.35C11.2941 78.017 14.2494 81 17.8824 81C21.7111 81 24 78.1025 24 75.3H20.2353C20.2353 76.0885 19.5049 77.2 17.8824 77.2C16.3256 77.2 15.0588 75.9213 15.0588 74.35C15.0588 72.7787 16.3256 71.5 17.8824 71.5H32V67.7H17.8824C14.2494 67.7 11.2941 70.683 11.2941 74.35ZM6.58824 56.3H20.7059V52.5H6.58824C5.03153 52.5 3.76471 51.2213 3.76471 49.65C3.76471 48.0787 5.03153 46.8 6.58824 46.8C8.21082 46.8 8.94118 47.9115 8.94118 48.7H12.7059C12.7059 45.8975 10.4169 43 6.58824 43C2.9553 43 0 45.983 0 49.65C0 53.317 2.9553 56.3 6.58824 56.3Z" fill="url(#paint2_linear_32_455)"/>
<path d="M7.6 71C11.7914 71 15.2 67.711 15.2 63.6667H11.4C11.4 65.6888 9.6957 67.3333 7.6 67.3333C5.5043 67.3333 3.8 65.6888 3.8 63.6667C3.8 61.6445 5.5043 60 7.6 60H38V56.3333H7.6C3.4086 56.3333 0 59.6223 0 63.6667C0 67.711 3.4086 71 7.6 71ZM38 52.6667H30.4V49H38V52.6667Z" fill="url(#paint3_linear_32_455)"/>
<defs>
<linearGradient id="paint0_linear_32_455" x1="91.5" y1="24" x2="91.5" y2="57" gradientUnits="userSpaceOnUse">
<stop stop-color="#1F8EBE"/>
<stop offset="0.317708" stop-color="#440495"/>
<stop offset="0.640625" stop-color="#440495"/>
<stop offset="1" stop-color="#B102CD"/>
</linearGradient>
<linearGradient id="paint1_linear_32_455" x1="88.5" y1="0" x2="88.5" y2="81" gradientUnits="userSpaceOnUse">
<stop stop-color="#1F8EBE"/>
<stop offset="0.317708" stop-color="#440495"/>
<stop offset="0.640625" stop-color="#440495"/>
<stop offset="1" stop-color="#B102CD"/>
</linearGradient>
<linearGradient id="paint2_linear_32_455" x1="16" y1="81" x2="16" y2="43" gradientUnits="userSpaceOnUse">
<stop stop-color="#1F8EBE"/>
<stop offset="0.322917" stop-color="#440495"/>
<stop offset="0.640625" stop-color="#440495"/>
<stop offset="1" stop-color="#B102CD"/>
</linearGradient>
<linearGradient id="paint3_linear_32_455" x1="19" y1="71" x2="19" y2="49" gradientUnits="userSpaceOnUse">
<stop stop-color="#1F8EBE"/>
<stop offset="0.322917" stop-color="#440495"/>
<stop offset="0.640625" stop-color="#440495"/>
<stop offset="1" stop-color="#B102CD"/>
</linearGradient>
</defs>
</svg>
