<svg width="1440" height="266" viewBox="0 0 1440 266" fill="none" xmlns="http://www.w3.org/2000/svg">
<path fill-rule="evenodd" clip-rule="evenodd" d="M0 121.729L24 109.706C48 97.6836 96 73.6384 144 55.6045C192 37.5706 240 25.548 288 31.5593C336 37.5706 384 61.6158 432 91.6723C480 121.729 528 157.797 576 145.774C624 133.751 672 73.6384 720 43.5819C768 13.5254 816 13.5254 864 7.51412C912 1.50282 960 -10.5198 1008 19.5367C1056 49.5932 1104 121.729 1152 121.729C1200 121.729 1248 49.5932 1296 25.548C1344 1.50282 1392 25.548 1416 37.5706L1440 49.5932V266H1416C1392 266 1344 266 1296 266C1248 266 1200 266 1152 266C1104 266 1056 266 1008 266C960 266 912 266 864 266C816 266 768 266 720 266C672 266 624 266 576 266C528 266 480 266 432 266C384 266 336 266 288 266C240 266 192 266 144 266C96 266 48 266 24 266H0V121.729Z" fill="url(#paint0_linear_47_2)"/>
<defs>
<linearGradient id="paint0_linear_47_2" x1="-4.40874e-06" y1="173" x2="1440" y2="182.5" gradientUnits="userSpaceOnUse">
<stop stop-color="#1F8EBE"/>
<stop offset="0.288814" stop-color="#440495"/>
<stop offset="0.658627" stop-color="#440495"/>
<stop offset="1" stop-color="#B102CD"/>
</linearGradient>
</defs>
</svg>
